<?xml version="1.0" standalone="no"?>
<!DOCTYPE svg PUBLIC "-//W3C//DTD SVG 20010904//EN"
 "http://www.w3.org/TR/2001/REC-SVG-20010904/DTD/svg10.dtd">
<svg version="1.0" xmlns="http://www.w3.org/2000/svg"
 width="1443.000000pt" height="1443.000000pt" viewBox="0 0 1443.000000 1443.000000"
 preserveAspectRatio="xMidYMid meet">

<g transform="translate(0.000000,1443.000000) scale(0.100000,-0.100000)"
fill="#000000" stroke="none">
<path d="M6621 13857 c-6 -8 -18 -30 -26 -51 -9 -20 -29 -45 -46 -55 -17 -11
-39 -33 -50 -50 -21 -35 -45 -40 -65 -13 -13 16 -15 16 -32 -7 -18 -23 -20
-23 -45 -6 -29 19 -77 14 -98 -11 -6 -8 -31 -23 -55 -34 -25 -10 -47 -26 -50
-34 -3 -9 -12 -16 -19 -16 -7 0 -23 -9 -37 -20 -18 -14 -28 -16 -36 -8 -8 8
-19 3 -42 -16 -38 -31 -60 -33 -60 -5 0 25 -25 20 -83 -17 -36 -24 -38 -24
-56 -7 -10 10 -20 26 -22 37 -3 16 -11 12 -47 -25 -24 -23 -53 -48 -65 -54
-16 -7 -21 -18 -19 -36 2 -20 -4 -28 -33 -42 -43 -20 -60 -15 -44 15 7 13 8
23 1 30 -15 15 -32 1 -32 -26 0 -12 -5 -27 -12 -34 -14 -14 -58 -16 -58 -3 0
5 -9 7 -19 4 -14 -3 -21 2 -26 19 -4 12 -11 25 -14 28 -3 3 -11 19 -16 35 -14
40 -54 42 -72 4 -20 -42 -38 -52 -62 -37 -23 14 -28 47 -9 66 8 8 8 12 1 12
-6 0 -14 12 -17 26 -6 24 -8 25 -25 10 -20 -18 -47 -21 -56 -6 -4 6 -12 6 -23
1 -49 -27 -122 -36 -133 -18 -13 19 -36 -1 -59 -50 -13 -26 -29 -55 -37 -64
-8 -9 -22 -36 -32 -60 -28 -70 -54 -107 -89 -126 -18 -10 -42 -33 -52 -50 -11
-19 -28 -33 -38 -33 -20 0 -52 -29 -52 -48 0 -8 -53 -42 -67 -42 -8 0 -2 39 7
45 14 9 12 25 -2 25 -13 0 -88 -77 -88 -90 0 -4 -6 -12 -13 -18 -10 -9 -17 -6
-30 8 -21 25 -37 26 -37 3 0 -30 -13 -40 -64 -47 -37 -6 -46 -5 -41 5 6 9 1
10 -18 5 -15 -3 -29 -1 -32 5 -4 6 -17 8 -29 5 -13 -3 -32 1 -45 10 -15 11
-26 13 -34 6 -7 -6 -32 -12 -57 -14 -35 -2 -47 -8 -56 -26 -6 -12 -19 -29 -29
-36 -18 -13 -44 -55 -66 -108 -7 -19 -18 -28 -34 -28 -19 0 -24 -7 -30 -39 -3
-22 -15 -47 -26 -57 -10 -9 -19 -27 -19 -38 0 -41 -12 -65 -39 -76 -17 -7 -31
-22 -37 -43 -6 -22 -15 -32 -27 -31 -27 3 -50 -41 -51 -98 -1 -31 -6 -53 -13
-56 -7 -2 -13 1 -13 6 0 8 -61 -6 -117 -28 -14 -6 -26 -25 -35 -57 -8 -27 -34
-73 -58 -104 l-43 -56 -105 -7 c-112 -8 -182 -26 -277 -74 -33 -16 -100 -49
-150 -73 -49 -24 -91 -47 -93 -51 -2 -4 -9 -5 -17 -2 -7 3 -16 1 -20 -5 -3 -6
-25 -11 -48 -11 -29 0 -38 -3 -28 -9 10 -7 0 -11 -35 -16 -27 -4 -56 -9 -64
-12 -8 -4 -21 -5 -28 -4 -6 1 -19 -2 -28 -7 -21 -12 -46 -70 -33 -77 5 -4 9 0
9 7 1 7 7 -2 15 -21 8 -18 12 -37 9 -42 -3 -6 -1 -15 4 -22 5 -7 10 -24 10
-39 0 -15 9 -39 21 -54 11 -15 21 -33 21 -40 0 -8 4 -22 9 -32 4 -9 13 -30 19
-47 18 -52 35 -99 43 -120 4 -11 13 -37 19 -59 7 -21 30 -73 51 -116 22 -43
44 -102 49 -131 6 -29 17 -63 25 -75 8 -13 12 -29 9 -37 -3 -8 -1 -18 5 -22
16 -9 13 -41 -4 -55 -8 -7 -15 -24 -15 -37 0 -14 -14 -44 -31 -68 -17 -24 -29
-48 -25 -53 3 -5 -1 -18 -9 -28 -8 -10 -15 -22 -15 -25 0 -9 87 -6 96 4 15 15
25 6 22 -20 -2 -23 -7 -27 -28 -25 -18 2 -21 0 -11 -6 9 -7 11 -19 6 -40 -6
-31 -6 -31 32 -30 21 0 51 7 67 15 23 12 27 12 24 1 -6 -16 20 -37 45 -38 21
0 21 -9 2 -46 -8 -16 -15 -37 -15 -46 0 -9 -5 -20 -10 -23 -16 -10 -12 -21 14
-33 16 -7 27 -7 34 0 7 7 17 4 33 -11 l22 -21 -26 -24 c-27 -25 -36 -56 -17
-56 18 0 11 -29 -10 -40 -25 -13 -26 -38 -2 -56 16 -13 16 -15 0 -28 -15 -11
-25 -36 -15 -36 2 0 23 10 48 22 24 12 51 23 59 25 8 1 25 5 38 9 34 10 27
-15 -18 -64 -22 -24 -40 -46 -40 -51 0 -4 -13 -23 -30 -41 -34 -38 -36 -49
-15 -91 9 -16 13 -34 9 -40 -4 -7 1 -7 15 0 26 14 27 5 6 -46 -18 -42 -18 -43
-4 -43 5 0 25 16 43 36 24 26 39 35 51 30 12 -4 14 -10 8 -19 -8 -10 -10 -63
-3 -84 1 -5 1 -18 0 -30 -1 -23 14 -31 25 -13 13 20 27 10 21 -15 -5 -18 -2
-25 9 -25 22 0 18 -16 -7 -34 -16 -12 -19 -19 -11 -27 8 -8 21 -4 47 16 33 25
42 25 36 0 -1 -5 -3 -21 -5 -35 -2 -14 -6 -42 -10 -63 -7 -34 -6 -37 11 -31
11 4 24 13 31 21 8 10 13 11 18 3 4 -6 1 -18 -6 -26 -10 -13 -10 -17 2 -25 25
-16 54 -10 64 14 6 12 20 23 33 25 22 3 31 -12 13 -22 -5 -4 -12 -25 -16 -49
-7 -41 -26 -100 -47 -144 -6 -12 -8 -29 -5 -37 5 -13 11 -14 32 -4 14 6 25 17
25 23 0 7 11 20 24 28 14 10 31 37 42 69 9 29 28 78 41 108 14 30 40 111 58
180 46 174 104 305 157 353 23 20 50 37 60 37 10 0 21 6 24 14 3 8 16 17 28
20 13 3 28 16 34 28 10 21 11 20 11 -13 1 -29 -3 -38 -19 -42 -11 -3 -20 -10
-20 -16 0 -21 25 -11 62 24 20 19 43 35 51 35 8 0 14 8 13 18 -1 12 7 18 26
20 20 2 26 8 22 20 -5 14 -3 14 10 -2 18 -22 32 -15 51 30 9 21 21 34 32 34
10 0 26 8 35 18 9 9 28 25 43 35 18 13 24 24 20 38 -8 23 7 25 25 4 15 -18 33
-20 28 -3 -4 12 59 78 74 78 4 0 22 14 40 30 18 17 41 30 51 30 10 0 31 10 47
22 16 12 33 19 36 15 12 -11 -5 -37 -31 -47 -17 -6 -25 -17 -25 -33 0 -13 -7
-32 -15 -43 -8 -10 -15 -27 -15 -37 0 -10 -8 -20 -17 -24 -10 -3 -35 -21 -56
-40 -39 -35 -52 -39 -62 -23 -10 15 -35 12 -35 -5 0 -8 5 -15 10 -15 15 0 12
-27 -4 -33 -8 -3 -18 -22 -22 -41 -3 -21 -12 -36 -20 -36 -8 0 -14 -5 -14 -10
0 -18 30 -23 48 -8 27 24 46 27 66 9 18 -15 19 -15 13 14 -5 27 -1 33 44 60
27 17 49 35 49 40 0 6 5 16 11 22 19 19 47 -25 42 -65 -6 -40 -19 -49 -42 -28
-20 18 -31 12 -31 -16 0 -10 -8 -21 -18 -24 -71 -24 -108 -56 -76 -68 21 -8
17 -26 -6 -26 -11 0 -20 -7 -20 -15 0 -8 9 -15 20 -15 24 0 61 -68 53 -98 -4
-17 2 -24 32 -36 20 -9 46 -15 58 -13 12 1 23 -4 24 -13 3 -12 -5 -15 -37 -12
-25 3 -40 0 -40 -7 0 -6 0 -14 0 -18 0 -5 6 -9 13 -9 6 -1 17 -2 22 -3 6 -1 5
-5 -2 -9 -9 -6 -8 -16 7 -40 21 -34 40 -42 40 -17 0 31 19 13 44 -40 26 -57
34 -63 54 -43 20 20 13 68 -17 112 -17 26 -33 69 -40 108 -17 88 -26 100 -51
69 -20 -23 -20 -23 -20 -2 0 14 -6 21 -18 21 -29 0 -42 21 -42 71 0 86 18 101
51 44 12 -19 25 -35 30 -35 13 0 11 47 -3 70 -10 15 -10 22 0 32 19 19 63 -38
56 -72 -5 -24 -5 -24 10 -6 19 23 28 16 45 -33 13 -40 8 -50 -14 -27 -13 13
-20 13 -35 3 -25 -15 -25 -23 1 -50 12 -12 32 -45 45 -74 13 -29 33 -57 44
-63 12 -6 25 -22 30 -36 11 -29 30 -32 30 -5 0 11 5 23 10 26 6 4 9 24 7 46
-4 41 7 53 18 18 9 -26 29 -19 33 12 2 14 11 30 22 37 16 10 20 7 30 -23 6
-18 18 -39 27 -47 15 -12 16 -8 10 44 -5 49 -30 105 -58 128 -12 10 -20 50
-10 50 5 0 13 -10 17 -22 3 -12 13 -28 20 -36 8 -7 14 -20 14 -28 0 -8 5 -14
11 -14 5 0 17 -16 25 -35 14 -35 51 -49 58 -22 2 6 11 35 19 62 l16 50 2 -45
c1 -25 1 -60 0 -77 -2 -18 2 -33 8 -33 6 0 11 11 11 25 0 18 5 25 18 25 17 0
19 -9 20 -72 2 -78 18 -113 28 -61 4 18 14 33 24 36 10 3 20 15 22 28 1 12 9
24 15 27 9 2 11 -5 7 -26 -7 -37 11 -52 20 -16 10 38 31 23 34 -25 4 -56 25
-50 48 14 6 18 8 18 18 -8 l10 -28 22 43 22 43 -3 -47 c-1 -27 1 -48 6 -48 5
0 22 14 38 32 35 39 54 31 46 -20 -5 -32 -5 -34 6 -17 7 11 23 31 36 44 12 13
23 34 23 46 0 31 39 117 50 110 5 -3 27 11 49 31 34 30 42 33 47 20 10 -25 21
-19 41 22 16 32 22 37 54 37 28 0 42 7 68 38 18 20 39 37 46 37 6 0 43 20 80
44 52 35 74 44 95 39 17 -3 46 3 75 16 59 26 73 26 77 0 3 -20 5 -19 60 10 57
31 98 40 98 22 0 -5 17 -7 38 -5 143 14 153 13 147 -5 -5 -16 1 -18 55 -15 45
2 60 -1 60 -12 0 -8 6 -11 16 -7 9 3 20 0 24 -7 6 -10 15 -11 37 -2 64 24 80
24 87 -3 6 -25 16 -29 69 -25 30 2 37 -14 10 -24 -29 -12 5 -26 62 -26 28 0
70 -5 95 -11 48 -11 67 -14 175 -24 99 -9 105 -12 75 -35 -29 -23 -31 -22 84
-21 49 0 94 5 100 11 7 7 3 10 -15 10 -40 1 -94 59 -69 75 21 13 8 24 -20 19
-17 -4 -36 -1 -45 6 -9 7 -26 9 -45 5 -29 -6 -30 -5 -24 19 5 23 3 27 -26 33
-20 3 -35 13 -37 25 -3 10 -9 18 -14 18 -5 0 -14 10 -19 23 -6 12 -14 29 -19
37 -5 8 -14 29 -21 45 -7 17 -17 39 -23 50 -6 11 -17 33 -25 49 -8 16 -28 34
-43 40 -16 6 -29 13 -29 17 0 4 -20 17 -45 29 -36 17 -62 22 -125 21 -94 -1
-110 4 -103 30 4 13 0 19 -10 19 -9 0 -18 4 -21 8 -2 4 41 9 97 10 55 1 103 5
106 8 3 3 -3 12 -13 20 -13 9 -46 14 -92 14 -79 0 -126 -12 -123 -32 5 -44
-25 -51 -80 -17 -28 17 -39 19 -58 10 -13 -6 -35 -11 -48 -11 -14 0 -25 -4
-25 -9 0 -5 -39 -7 -87 -4 -126 6 -125 6 -153 -3 -23 -7 -24 -6 -11 9 15 19
11 21 -42 17 -15 -1 -35 4 -43 10 -18 16 -94 -3 -144 -36 -43 -28 -170 -58
-219 -51 -20 3 -45 2 -56 -2 -27 -11 -45 -3 -38 16 5 13 3 13 -23 0 -16 -8
-38 -24 -48 -36 -20 -22 -46 -28 -46 -12 0 6 10 17 23 26 l22 15 -22 6 c-27 7
-28 12 -7 42 8 12 10 22 5 22 -6 0 -11 -4 -11 -10 0 -17 -81 -90 -100 -90 -10
0 -22 -5 -26 -11 -3 -6 -17 -8 -30 -5 -30 8 -91 -22 -143 -69 -21 -19 -45 -35
-53 -35 -15 0 -110 -95 -160 -160 -21 -27 -27 -31 -28 -17 0 21 23 57 83 130
22 26 37 51 33 54 -10 10 -156 -138 -162 -164 -8 -28 -15 -29 -37 -3 -23 27
-12 47 61 106 63 51 77 69 62 79 -17 11 -78 -34 -115 -84 -20 -25 -46 -58 -60
-74 -14 -15 -25 -34 -25 -43 0 -8 -7 -25 -15 -38 -9 -13 -18 -47 -22 -75 -10
-84 -39 -84 -35 1 2 37 9 58 27 80 14 16 25 37 25 47 0 10 9 26 21 37 15 13
19 26 15 46 -7 38 2 58 33 70 l26 10 -22 11 c-28 12 -30 27 -4 27 11 0 21 5
23 12 3 8 25 12 61 11 34 -1 55 3 51 9 -3 5 2 18 11 28 10 11 18 29 19 40 1
19 64 60 93 60 7 0 17 9 23 19 5 11 20 23 32 27 13 3 31 13 41 22 9 8 17 12
17 9 0 -4 17 2 37 13 21 11 46 20 56 20 10 0 30 9 45 20 15 11 56 25 92 31 35
5 71 15 78 22 8 6 42 14 76 18 34 3 79 14 100 24 36 17 37 19 20 32 -13 10
-15 16 -7 24 17 17 33 1 33 -31 0 -29 0 -29 32 -16 43 19 47 36 9 36 -34 0
-41 14 -14 29 26 14 10 23 -20 12 -18 -7 -27 -7 -31 2 -3 8 -11 5 -23 -9 -16
-19 -63 -39 -63 -27 0 15 23 43 35 43 19 0 39 36 24 45 -15 10 19 45 43 45 10
0 21 -7 24 -15 5 -13 9 -13 34 0 39 20 41 19 34 -12 -7 -27 -7 -26 31 10 29
28 41 34 55 27 10 -6 21 -5 27 1 13 13 73 -1 73 -17 0 -8 -4 -14 -10 -14 -5 0
-10 -5 -10 -10 0 -6 8 -5 20 2 11 7 18 18 16 25 -7 16 5 23 51 27 21 2 50 7
65 11 23 6 29 3 36 -16 8 -20 15 -23 52 -20 39 2 42 1 37 -18 -3 -12 -1 -21 4
-21 5 0 12 13 15 30 8 36 28 54 63 56 63 4 280 40 254 43 -6 0 -18 7 -25 14
-39 35 -84 47 -106 25 -6 -6 -38 -12 -72 -12 -39 -1 -60 -5 -60 -13 0 -7 -28
-14 -74 -18 -76 -7 -108 1 -133 34 -10 14 -13 14 -30 0 -24 -22 -60 -32 -68
-19 -3 6 3 10 15 10 12 0 25 10 32 25 6 14 17 25 24 25 7 0 30 11 50 25 l37
25 29 -27 c15 -15 28 -37 28 -49 0 -29 25 -37 58 -19 25 13 26 15 7 20 -21 6
-48 52 -39 66 3 5 14 9 24 9 10 0 22 5 26 11 4 7 24 9 52 6 26 -3 53 0 64 7
15 8 21 8 27 -3 7 -11 14 -10 40 5 17 10 33 15 37 11 12 -12 -28 -47 -55 -47
-18 0 -22 -3 -14 -11 14 -14 73 9 73 28 0 15 32 25 53 17 9 -3 37 5 62 17 38
19 48 21 55 10 4 -8 17 -12 28 -8 12 2 23 0 24 -5 3 -8 11 -7 25 0 20 11 121
1 163 -15 8 -4 38 -7 65 -9 28 -1 62 -2 77 -3 15 0 34 -8 42 -17 9 -8 31 -16
50 -17 19 -2 38 -6 42 -10 4 -4 15 -7 24 -7 10 0 23 -7 31 -16 8 -10 22 -14
39 -10 15 2 39 -2 54 -10 35 -18 50 -18 43 0 -4 11 2 12 34 5 41 -10 145 -20
234 -23 50 -2 124 -28 136 -48 4 -5 38 -11 75 -13 102 -3 151 -20 170 -56 17
-34 50 -36 47 -4 -1 11 4 23 10 27 30 19 137 2 137 -22 0 -6 -11 -15 -25 -20
-25 -10 -33 -34 -15 -45 6 -3 10 -17 10 -29 0 -19 9 -26 48 -39 26 -8 46 -20
45 -25 -1 -6 15 -8 41 -5 37 3 44 1 48 -15 3 -11 17 -22 34 -25 106 -21 140
-30 160 -43 15 -10 24 -12 29 -5 7 12 93 13 135 2 16 -4 25 -13 25 -26 0 -16
10 -22 45 -29 25 -5 47 -12 50 -16 3 -3 24 -12 48 -18 23 -7 42 -17 42 -21 0
-22 104 -13 163 14 24 10 31 1 17 -24 -10 -20 -8 -21 31 -21 37 0 41 2 36 21
-8 29 13 59 40 59 28 0 53 -10 53 -21 0 -12 -37 -11 -45 1 -9 14 -27 12 -22
-2 2 -7 9 -13 15 -13 5 0 14 -3 18 -7 4 -5 21 -8 38 -8 17 0 50 -7 72 -15 34
-11 48 -12 75 -2 46 16 47 17 25 32 -28 21 -11 34 44 33 27 -1 47 -5 44 -10
-9 -15 27 -48 53 -48 12 0 23 -4 23 -10 0 -5 -4 -10 -10 -10 -5 0 -10 -4 -10
-10 0 -16 56 -11 110 10 28 11 58 20 66 20 27 0 9 -24 -24 -34 -43 -12 -41
-23 4 -18 30 4 35 2 32 -14 -2 -14 2 -18 17 -16 11 1 51 3 88 4 50 0 70 5 76
16 6 10 25 17 51 18 40 2 41 1 25 -16 -9 -10 -14 -23 -11 -29 4 -6 -5 -13 -19
-17 -14 -3 -25 -10 -25 -15 0 -18 27 -20 71 -5 55 20 59 20 59 1 0 -9 -11 -20
-25 -25 -14 -5 -25 -16 -25 -24 0 -15 -21 -26 -51 -26 -11 0 -18 -4 -14 -10 3
-5 54 -9 113 -8 59 1 126 -2 148 -6 37 -6 42 -5 47 13 4 16 13 21 40 21 43 0
55 -15 32 -40 -21 -23 -10 -44 19 -35 39 13 136 16 136 5 0 -15 -45 -30 -90
-30 -21 0 -42 -5 -45 -10 -4 -6 7 -10 27 -10 72 2 113 -6 113 -20 0 -11 -12
-14 -46 -11 -31 1 -51 -3 -62 -13 -13 -14 -15 -13 -20 4 -9 33 -34 23 -42 -16
-3 -20 -3 -39 0 -42 3 -4 30 -7 58 -8 51 -2 74 -18 43 -30 -9 -3 -16 -15 -16
-25 0 -15 -7 -19 -32 -19 -37 -1 -21 -15 22 -22 20 -2 24 1 22 16 -3 17 1 18
48 12 29 -4 57 -3 63 3 7 5 39 11 72 13 48 2 60 0 60 -12 0 -11 -14 -16 -52
-18 -38 -2 -53 -7 -53 -18 0 -10 12 -14 41 -14 31 0 40 -3 36 -14 -6 -16 11
-36 30 -36 7 0 13 5 13 10 0 6 -7 10 -15 10 -8 0 -15 5 -15 10 0 6 10 10 23
10 51 -1 207 -19 218 -25 16 -11 -9 -24 -46 -26 -29 -1 -30 -1 -5 -9 14 -4 44
-8 68 -9 24 -1 53 -6 64 -12 17 -9 24 -8 33 5 12 15 45 23 45 10 0 -4 -8 -13
-17 -20 -23 -16 -11 -29 15 -15 25 13 102 15 102 2 0 -11 -25 -21 -55 -21 -13
0 -27 -5 -31 -11 -3 -6 -19 -9 -35 -5 -21 4 -29 2 -29 -9 0 -10 11 -13 43 -11
23 1 48 6 55 10 7 4 35 5 63 1 40 -6 48 -10 39 -20 -6 -8 -26 -15 -43 -17 -51
-5 -32 -23 23 -23 38 0 49 -3 45 -13 -11 -30 54 -62 127 -62 27 0 38 -4 38
-15 0 -21 -41 -28 -90 -15 -48 13 -64 5 -35 -16 12 -9 30 -12 46 -9 32 7 62
-21 38 -36 -8 -5 -25 -9 -39 -9 l-25 -1 24 -10 c14 -5 31 -7 39 -4 8 3 22 -5
32 -18 10 -12 42 -31 71 -41 30 -10 60 -26 67 -35 7 -9 31 -21 54 -26 23 -6
44 -17 46 -24 4 -11 -7 -13 -52 -9 -41 3 -60 1 -68 -9 -17 -21 9 -34 55 -27
32 5 37 3 37 -14 0 -10 11 -24 26 -30 27 -13 24 -32 -4 -32 -9 0 -30 7 -46 15
-29 15 -56 14 -56 -2 0 -4 43 -21 95 -38 52 -16 97 -35 99 -41 7 -17 -40 -27
-65 -13 -22 11 -49 6 -49 -11 0 -5 15 -10 33 -10 31 0 57 -14 57 -32 0 -4 -11
-8 -25 -8 -14 0 -25 -5 -25 -10 0 -12 12 -17 53 -24 16 -3 34 -9 41 -15 6 -5
25 -9 42 -9 34 1 54 -8 54 -23 0 -12 -36 -12 -60 1 -23 12 -82 2 -77 -14 2 -6
15 -14 28 -17 37 -8 129 -52 129 -61 0 -12 -21 -10 -90 8 -34 8 -64 13 -68 10
-11 -11 14 -27 64 -40 70 -19 135 -49 131 -61 -6 -17 -44 -17 -76 -1 -16 9
-40 16 -53 16 -23 -1 -23 -1 -3 -16 11 -8 25 -12 32 -10 36 14 58 -29 28 -54
-27 -22 -16 -30 35 -29 28 1 53 -1 57 -4 3 -4 -5 -7 -19 -7 -14 0 -31 -7 -38
-15 -11 -13 -10 -18 8 -31 25 -18 29 -39 7 -48 -25 -9 -17 -30 18 -46 20 -9
31 -21 29 -31 -1 -11 7 -19 22 -23 13 -3 26 -13 30 -21 4 -11 -2 -15 -24 -15
-34 0 -38 -10 -12 -33 22 -20 36 -21 60 -6 14 9 29 6 71 -16 29 -14 51 -28 49
-30 -1 -1 -27 2 -56 8 -62 13 -81 0 -55 -39 12 -19 18 -21 33 -12 19 12 50 5
50 -12 0 -5 -8 -10 -17 -10 -22 -1 -53 -23 -53 -38 0 -6 13 -16 30 -24 41 -18
45 -35 9 -43 -17 -4 -28 -9 -25 -13 3 -3 1 -11 -5 -18 -8 -10 -1 -19 30 -40
23 -15 41 -29 41 -33 0 -11 102 -116 110 -114 4 1 6 -6 3 -16 -2 -10 3 -25 11
-34 28 -27 170 -318 213 -432 57 -155 64 -192 65 -355 0 -106 -5 -179 -21
-270 -12 -69 -28 -162 -35 -206 -7 -45 -17 -88 -21 -95 -5 -7 -9 -35 -11 -63
-1 -28 -9 -71 -18 -96 -20 -60 -46 -213 -40 -237 3 -11 -8 -33 -30 -60 -20
-22 -36 -48 -36 -56 0 -8 -7 -20 -15 -27 -18 -15 -20 -51 -2 -69 10 -10 8 -16
-11 -31 -14 -12 -20 -24 -15 -36 4 -11 0 -22 -12 -30 -15 -11 -16 -16 -6 -28
15 -17 7 -36 -15 -36 -19 0 -18 -10 4 -26 16 -13 16 -15 -7 -32 -19 -16 -22
-22 -13 -39 6 -11 9 -22 7 -25 -2 -2 -6 -20 -9 -38 -2 -19 -9 -48 -15 -64 -10
-23 -9 -32 5 -47 14 -16 14 -18 -5 -29 -25 -13 -27 -42 -6 -73 12 -19 13 -28
2 -50 -6 -15 -18 -27 -26 -27 -10 0 -12 -8 -7 -32 4 -22 1 -37 -11 -50 -12
-13 -14 -21 -6 -26 17 -11 10 -68 -11 -91 -17 -19 -17 -21 -2 -27 11 -4 16
-19 16 -50 0 -38 -4 -46 -25 -56 -32 -14 -32 -36 0 -44 14 -3 22 -10 19 -16
-3 -5 -1 -14 5 -21 19 -23 -5 -41 -51 -39 l-43 1 30 -13 c55 -26 81 -3 90 77
8 69 29 105 103 174 31 29 57 44 85 49 23 3 48 13 56 22 13 13 13 14 -6 8 -21
-7 -21 -5 -13 26 8 26 7 34 -6 41 -31 18 -54 47 -54 70 0 13 -5 28 -12 35 -9
9 -9 15 0 24 7 7 12 24 12 39 0 15 6 42 14 60 7 19 11 40 9 46 -3 7 5 25 16
39 12 15 21 33 21 40 0 8 5 14 10 14 6 0 10 8 10 18 0 10 3 22 7 26 4 3 7 26
8 49 1 24 7 52 12 62 32 61 53 108 53 117 0 5 9 21 20 35 11 14 17 29 14 34
-3 5 4 21 15 36 11 16 22 54 25 87 4 33 15 79 26 104 11 24 20 55 20 67 0 12
7 28 15 35 8 7 15 18 15 25 0 7 7 18 15 25 9 7 15 29 15 55 0 25 6 48 14 54 8
7 18 37 21 66 5 34 14 60 26 71 19 17 19 18 -8 46 l-27 28 32 -6 c29 -6 32 -4
32 17 0 34 23 95 44 118 17 19 26 65 47 231 5 47 15 98 21 114 6 16 12 57 13
92 1 36 5 68 9 72 20 19 36 80 36 134 0 57 20 158 40 203 26 61 30 87 14 117
-15 28 -14 31 6 50 17 16 21 31 20 86 0 193 7 321 19 336 11 13 11 19 0 32
-11 14 -11 18 3 28 26 19 24 170 -2 186 -8 5 -12 11 -10 12 3 2 16 11 30 20
22 13 25 22 25 64 -1 33 8 70 27 112 15 35 35 90 44 122 15 56 69 130 94 130
18 0 29 68 17 107 -13 47 -16 51 -26 34 -5 -7 -7 4 -5 28 1 23 -2 41 -7 41 -5
0 -9 10 -9 23 1 21 1 22 15 3 14 -18 15 -17 15 25 0 29 -3 39 -9 30 -18 -28
-17 83 1 149 15 54 16 67 5 75 -8 6 -17 20 -21 33 -4 12 -11 22 -16 22 -22 0
-80 120 -80 165 0 29 -5 35 -41 49 -43 17 -44 36 -3 36 21 0 25 4 22 22 -2 12
-12 27 -23 33 -16 8 -19 16 -14 35 4 14 7 33 8 43 1 17 -5 21 -76 47 -41 15
-42 28 -4 43 36 13 59 55 36 63 -8 4 -15 12 -15 19 0 7 -7 18 -15 25 -17 14
-20 51 -4 67 7 7 6 14 -3 24 -41 43 -64 118 -40 133 4 2 5 37 1 77 -5 54 -11
76 -25 86 -64 45 -66 47 -60 75 8 39 -2 58 -30 58 -28 0 -31 8 -8 25 23 16 9
53 -22 61 -13 3 -24 12 -24 18 0 7 -22 18 -50 25 -37 10 -50 18 -50 31 0 11 5
22 10 25 6 4 9 18 8 33 -1 15 6 39 15 53 16 24 16 28 -3 67 -11 22 -20 45 -20
51 0 5 -9 12 -20 16 -13 4 -19 14 -17 28 1 16 -4 23 -21 25 -23 3 -23 4 -6 23
9 10 15 20 13 22 -14 10 -138 47 -156 47 -30 0 -30 28 0 39 24 9 77 65 77 81
0 14 -49 40 -76 40 -22 0 -25 2 -14 15 13 16 16 14 -45 33 -16 5 -30 15 -30
23 0 17 -53 25 -68 10 -17 -17 -50 -14 -43 4 3 8 0 16 -7 16 -17 2 -48 5 -74
7 -32 3 -28 18 7 30 20 7 34 23 45 48 21 50 20 52 -17 56 -27 2 -35 9 -43 35
-14 42 -21 48 -39 34 -8 -7 -23 -11 -33 -9 -15 4 -13 7 9 18 62 30 23 80 -61
80 -39 0 -51 4 -51 15 0 8 -4 15 -9 15 -5 0 -32 22 -60 49 -46 42 -51 51 -45
76 l7 28 -99 -8 c-54 -4 -107 -12 -117 -17 -32 -16 -31 -1 2 39 17 21 31 41
31 46 0 4 -13 13 -30 18 -16 6 -30 15 -30 20 0 5 -18 12 -40 15 -22 4 -43 11
-46 15 -8 14 -68 10 -90 -6 -26 -19 -34 -19 -34 4 0 30 -56 84 -81 78 -16 -4
-19 -2 -14 11 15 37 10 47 -24 50 -23 2 -40 -3 -56 -18 -27 -26 -46 -9 -21 19
20 22 20 35 0 52 -9 7 -13 21 -10 34 6 23 -22 56 -56 68 -9 3 -18 16 -20 29
-2 19 -10 24 -42 26 -28 2 -49 12 -70 33 -19 18 -40 29 -58 29 -16 0 -28 5
-28 13 0 13 -59 57 -78 57 -15 0 -54 21 -64 34 -4 6 -27 -1 -56 -17 -61 -33
-62 -33 -62 -3 0 25 -25 43 -35 26 -12 -19 -54 -10 -72 16 -55 78 -63 84 -111
84 -28 0 -52 6 -63 16 -18 16 -34 20 -95 23 -33 1 -81 41 -143 120 -32 40 -37
43 -73 38 -28 -4 -38 -2 -38 9 0 8 -7 14 -16 14 -12 0 -15 6 -10 24 4 18 -1
32 -18 51 -14 15 -29 24 -35 21 -5 -4 -12 -2 -16 3 -3 6 -35 7 -76 4 -65 -6
-70 -4 -75 15 -6 19 -8 19 -40 6 -32 -14 -34 -13 -34 6 0 30 -30 72 -47 65
-17 -6 -73 49 -73 71 0 10 -13 14 -42 14 -40 0 -44 3 -62 40 -19 40 -33 48
-52 31 -5 -5 -27 -12 -49 -16 -32 -5 -38 -4 -27 6 15 16 16 71 0 87 -18 18
-34 15 -62 -13 -36 -36 -120 -35 -87 0 5 6 7 24 4 41 -4 25 -9 31 -24 27 -12
-4 -19 0 -19 10 0 17 -83 32 -123 22 -15 -4 -28 -1 -36 9 -20 24 -62 19 -105
-14 -39 -30 -56 -31 -56 -4 0 8 -11 19 -25 24 -14 5 -25 14 -25 20 0 28 -56 3
-78 -35 l-11 -20 -1 20 c0 11 4 27 9 34 13 20 -5 51 -27 51 -10 0 -23 5 -28
10 -7 7 -20 0 -39 -20 -16 -16 -32 -30 -35 -30 -4 0 -5 23 -2 50 4 49 4 50
-22 50 -19 0 -30 -8 -38 -25 -13 -30 -32 -28 -36 4 -2 13 -14 26 -30 32 -25
10 -31 7 -73 -40 -25 -28 -48 -51 -51 -51 -3 0 -4 25 -2 55 2 30 1 55 -1 55
-8 0 -82 -77 -99 -105 -19 -29 -20 -29 -29 -8 -7 15 -5 30 7 53 11 24 13 37 5
51 -16 31 -47 23 -64 -17 -13 -31 -18 -35 -39 -30 -16 4 -32 -1 -49 -14 -30
-24 -37 -25 -37 -5 0 19 -21 65 -30 65 -4 0 -14 -17 -22 -39 -11 -28 -23 -40
-43 -45 -18 -5 -31 -3 -35 5 -5 7 -18 9 -34 5 -16 -4 -26 -2 -26 4 0 23 -31
21 -61 -4 -17 -14 -37 -26 -44 -26 -7 0 -21 -7 -29 -16 -15 -14 -16 -14 -16 0
0 20 -24 21 -40 1 -9 -11 -16 -12 -26 -4 -9 7 -21 6 -45 -7 -32 -16 -33 -16
-50 5 -12 15 -28 21 -58 21 -22 0 -43 -5 -46 -11 -4 -5 -12 -8 -18 -6 -18 6
-47 -12 -47 -28 0 -18 -36 -39 -44 -26 -4 5 1 17 11 26 16 16 15 17 -18 10
-19 -4 -42 -14 -51 -22 -12 -11 -21 -12 -35 -5 -11 6 -25 7 -34 2 -8 -5 -32
-5 -55 0 -21 5 -47 7 -56 4 -12 -4 -18 0 -18 10 0 19 -4 20 -31 4 -18 -11 -23
-10 -36 10 -18 25 -57 29 -79 7 -21 -20 -35 -19 -41 5 -3 10 -13 22 -23 25
-10 3 -21 12 -24 20 -4 10 -20 15 -51 15 -38 0 -45 3 -45 20 0 17 -7 20 -40
20 -29 0 -40 4 -40 15 0 13 -7 15 -35 9 -26 -5 -40 -1 -61 15 -31 25 -38 26
-53 8z m2009 -129 c0 -19 -18 -43 -25 -36 -9 9 4 48 16 48 5 0 9 -6 9 -12z
m-2090 -28 c0 -5 -5 -10 -11 -10 -5 0 -7 5 -4 10 3 6 8 10 11 10 2 0 4 -4 4
-10z m1471 -23 c-8 -8 -11 -7 -11 4 0 20 13 34 18 19 3 -7 -1 -17 -7 -23z
m-1766 -117 c-3 -5 -11 -10 -16 -10 -6 0 -7 5 -4 10 3 6 11 10 16 10 6 0 7 -4
4 -10z m1059 -6 c9 -24 7 -28 -9 -14 -17 14 -20 30 -6 30 5 0 12 -7 15 -16z
m-2014 -198 c0 -16 -18 -31 -27 -22 -8 8 5 36 17 36 5 0 10 -6 10 -14z m4410
-10 c0 -16 -24 -38 -33 -30 -8 9 11 44 23 44 6 0 10 -6 10 -14z m-4831 -183
c1 -7 -3 -13 -8 -13 -10 0 -21 47 -12 55 6 6 19 -21 20 -42z m-93 -40 c-11
-11 -19 6 -11 24 8 17 8 17 12 0 3 -10 2 -21 -1 -24z m-582 -232 c-9 -10 -26
18 -18 30 5 9 9 8 14 -7 4 -10 6 -21 4 -23z m-64 -71 c0 -5 -2 -10 -4 -10 -3
0 -8 5 -11 10 -3 6 -1 10 4 10 6 0 11 -4 11 -10z m-164 -57 c-10 -10 -19 5
-10 18 6 11 8 11 12 0 2 -7 1 -15 -2 -18z m-286 -453 c0 -12 -28 -25 -36 -17
-9 9 6 27 22 27 8 0 14 -5 14 -10z m8505 -469 c7 -13 -2 -18 -50 -27 l-40 -7
19 22 c20 21 60 28 71 12z m135 -551 c0 -5 -2 -10 -4 -10 -3 0 -8 5 -11 10 -3
6 -1 10 4 10 6 0 11 -4 11 -10z m-6130 -48 c0 -13 -12 -22 -22 -16 -10 6 -1
24 13 24 5 0 9 -4 9 -8z m6525 -172 c3 -5 1 -10 -4 -10 -6 0 -11 5 -11 10 0 6
2 10 4 10 3 0 8 -4 11 -10z m-7075 -140 c0 -4 -11 -11 -24 -14 -13 -3 -31 -9
-40 -12 -11 -4 -16 -1 -16 10 0 10 9 16 24 16 14 0 28 5 31 10 7 11 25 4 25
-10z m-30 -64 c0 -3 -4 -8 -10 -11 -5 -3 -10 -1 -10 4 0 6 5 11 10 11 6 0 10
-2 10 -4z m-280 -60 c0 -3 -4 -8 -10 -11 -5 -3 -10 -1 -10 4 0 6 5 11 10 11 6
0 10 -2 10 -4z m7467 -2 c-3 -3 -12 -4 -19 -1 -8 3 -5 6 6 6 11 1 17 -2 13 -5z
m-3427 -84 c0 -6 6 -10 13 -9 30 4 67 -2 67 -10 0 -12 -56 -31 -93 -31 -28 0
-29 1 -15 18 9 9 13 23 11 30 -3 6 0 12 6 12 6 0 11 -5 11 -10z m-395 -10 c4
-6 -6 -7 -27 -3 -44 8 -48 13 -10 13 17 0 34 -4 37 -10z m118 -7 c-7 -2 -19
-2 -25 0 -7 3 -2 5 12 5 14 0 19 -2 13 -5z m122 -3 c3 -5 -3 -10 -14 -10 -11
0 -23 5 -26 10 -3 6 3 10 14 10 11 0 23 -4 26 -10z m-165 -10 c0 -5 -7 -10
-15 -10 -8 0 -15 5 -15 10 0 6 7 10 15 10 8 0 15 -4 15 -10z m673 -27 c-7 -2
-21 -2 -30 0 -10 3 -4 5 12 5 17 0 24 -2 18 -5z m367 -23 c0 -5 -9 -10 -20
-10 -11 0 -20 5 -20 10 0 6 9 10 20 10 11 0 20 -4 20 -10z m-217 -37 c-7 -2
-19 -2 -25 0 -7 3 -2 5 12 5 14 0 19 -2 13 -5z m-3773 -23 c0 -15 -55 -40 -87
-40 l-28 1 28 24 c28 25 87 35 87 15z m-1440 -14 c0 -3 -4 -8 -10 -11 -5 -3
-10 -1 -10 4 0 6 5 11 10 11 6 0 10 -2 10 -4z m1010 -61 c0 -9 -6 -12 -15 -9
-8 4 -12 10 -9 15 8 14 24 10 24 -6z m-1100 -10 c0 -8 -4 -15 -10 -15 -5 0
-10 7 -10 15 0 8 5 15 10 15 6 0 10 -7 10 -15z m735 -25 c-3 -5 -12 -10 -18
-10 -7 0 -6 4 3 10 19 12 23 12 15 0z m-1033 -59 c12 -14 13 -22 5 -30 -17
-17 -27 -13 -27 9 0 11 -4 20 -10 20 -5 0 -10 5 -10 10 0 17 24 11 42 -9z
m2706 -39 c3 -9 -2 -13 -14 -10 -9 1 -19 9 -22 16 -3 9 2 13 14 10 9 -1 19 -9
22 -16z m-2250 -77 c-18 -25 -36 -45 -41 -45 -10 0 -3 13 30 58 37 49 47 38
11 -13z m542 31 c0 -3 -4 -8 -10 -11 -5 -3 -10 -1 -10 4 0 6 5 11 10 11 6 0
10 -2 10 -4z m5480 -41 c-14 -16 -60 -21 -60 -6 0 10 22 18 54 20 15 1 16 -2
6 -14z m75 5 c-3 -5 -15 -10 -26 -10 -11 0 -17 5 -14 10 3 6 15 10 26 10 11 0
17 -4 14 -10z m-6300 -27 c-4 -10 -10 -26 -12 -35 -6 -20 -18 -23 -27 -9 -10
16 13 61 30 61 11 0 14 -5 9 -17z m33 -8 c-6 -14 -13 -23 -16 -21 -7 7 9 46
18 46 5 0 4 -11 -2 -25z m8329 -11 c-3 -3 -12 -4 -19 -1 -8 3 -5 6 6 6 11 1
17 -2 13 -5z m-2191 -19 c18 -14 17 -14 -12 -15 -17 0 -46 -3 -63 -6 -24 -5
-31 -3 -31 9 0 27 75 36 106 12z m180 -20 c-4 -12 3 -15 30 -15 24 0 34 -4 32
-12 -5 -15 -68 -24 -68 -10 0 5 -11 7 -24 5 -13 -3 -27 0 -30 6 -4 6 -23 11
-42 11 -19 0 -34 5 -34 11 0 7 16 9 48 5 26 -4 54 -2 62 4 22 14 33 12 26 -5z
m-6876 -9 c0 -3 -4 -8 -10 -11 -5 -3 -10 -1 -10 4 0 6 5 11 10 11 6 0 10 -2
10 -4z m610 -30 c0 -8 -4 -18 -10 -21 -5 -3 -10 -17 -10 -31 0 -13 -4 -24 -10
-24 -5 0 -11 -10 -11 -22 -1 -14 -4 -10 -8 12 -4 26 -1 43 14 67 22 35 35 42
35 19z m-640 -6 c0 -9 -32 -30 -46 -30 -4 0 1 9 11 20 19 21 35 26 35 10z
m2935 0 c18 -8 17 -9 -7 -9 -15 -1 -30 4 -33 9 -7 12 12 12 40 0z m3965 -7
c-1 -21 -19 -35 -36 -29 -18 7 -18 8 0 22 22 15 36 18 36 7z m120 -33 c-9 -4
-31 -5 -50 0 -34 8 -33 8 15 9 34 0 45 -3 35 -9z m-3860 -10 c0 -5 -12 -10
-26 -10 -14 0 -23 4 -19 10 3 6 15 10 26 10 10 0 19 -4 19 -10z m3940 -29 c0
-16 -27 -31 -45 -25 -17 7 -17 8 1 21 20 15 44 17 44 4z m110 -30 c0 -12 -20
-25 -27 -18 -7 7 6 27 18 27 5 0 9 -4 9 -9z m-8078 -116 c-5 -26 -19 -41 -29
-31 -5 5 23 56 31 56 2 0 1 -11 -2 -25z m192 -239 c-7 -19 -34 -29 -34 -12 0
16 10 26 26 26 8 0 11 -6 8 -14z m8263 -2 c-3 -3 -12 -4 -19 -1 -8 3 -5 6 6 6
11 1 17 -2 13 -5z m-8173 -119 c-6 -16 -34 -21 -34 -7 0 13 11 22 26 22 8 0
11 -6 8 -15z m8876 -1056 c0 -11 -27 -12 -34 0 -3 4 -3 11 0 14 8 8 34 -3 34
-14z m-80 1 c0 -5 -5 -10 -11 -10 -5 0 -7 5 -4 10 3 6 8 10 11 10 2 0 4 -4 4
-10z m60 -50 c0 -5 -7 -10 -15 -10 -8 0 -15 5 -15 10 0 6 7 10 15 10 8 0 15
-4 15 -10z"/>
<path d="M6043 11003 c-7 -2 -13 -11 -13 -19 0 -7 -12 -22 -27 -31 -15 -10
-37 -28 -50 -40 -12 -13 -26 -23 -31 -23 -6 0 -13 -7 -16 -16 -4 -12 3 -10 34
7 22 13 40 28 40 33 0 6 14 17 31 25 17 7 34 24 39 36 5 13 15 25 22 28 9 4 9
5 -2 5 -8 0 -21 -2 -27 -5z"/>
<path d="M6059 10952 c-13 -10 -32 -21 -41 -25 -23 -8 -23 -31 -1 -52 16 -16
18 -16 36 9 10 14 28 26 39 26 15 0 18 5 13 20 -4 11 -2 20 4 20 6 0 11 5 11
10 0 16 -35 11 -61 -8z"/>
<path d="M5905 10930 c-3 -5 1 -10 9 -10 9 0 16 5 16 10 0 6 -4 10 -9 10 -6 0
-13 -4 -16 -10z"/>
<path d="M5855 10890 c-21 -23 -16 -25 19 -9 14 7 23 16 20 20 -8 14 -19 11
-39 -11z"/>
<path d="M8158 10863 c7 -3 16 -2 19 1 4 3 -2 6 -13 5 -11 0 -14 -3 -6 -6z"/>
<path d="M8363 10782 c4 -5 25 -12 47 -14 49 -4 39 8 -14 18 -26 4 -37 3 -33
-4z"/>
<path d="M8625 10720 c-4 -6 5 -10 20 -10 15 0 24 4 20 10 -3 6 -12 10 -20 10
-8 0 -17 -4 -20 -10z"/>
<path d="M9525 10660 c-3 -5 3 -10 14 -10 11 0 23 5 26 10 3 6 -3 10 -14 10
-11 0 -23 -4 -26 -10z"/>
<path d="M9565 10601 c-3 -5 -1 -12 5 -16 12 -7 30 2 30 16 0 12 -27 12 -35 0z"/>
<path d="M9450 10540 c0 -5 7 -10 16 -10 8 0 12 5 9 10 -3 6 -10 10 -16 10 -5
0 -9 -4 -9 -10z"/>
<path d="M9660 10540 c-12 -8 -9 -10 13 -10 15 0 27 5 27 10 0 13 -20 13 -40
0z"/>
<path d="M9861 10471 c-8 -6 -9 -11 -3 -15 6 -3 14 -1 17 5 9 14 2 20 -14 10z"/>
<path d="M10115 10380 c-3 -5 1 -10 9 -10 8 0 18 5 21 10 3 6 -1 10 -9 10 -8
0 -18 -4 -21 -10z"/>
<path d="M10172 10379 c2 -6 8 -10 13 -10 5 0 11 4 13 10 2 6 -4 11 -13 11 -9
0 -15 -5 -13 -11z"/>
<path d="M7150 10284 c0 -6 6 -18 13 -27 15 -20 67 -34 67 -18 0 6 -8 11 -17
11 -9 0 -27 10 -40 22 -13 12 -23 17 -23 12z"/>
<path d="M10385 10210 c-3 -5 2 -10 12 -10 10 0 29 -3 43 -6 18 -4 21 -3 10 4
-27 17 -58 23 -65 12z"/>
<path d="M7270 10203 c0 -13 14 -27 37 -40 34 -19 36 -16 13 17 -19 27 -50 41
-50 23z"/>
<path d="M10108 10203 c7 -3 16 -2 19 1 4 3 -2 6 -13 5 -11 0 -14 -3 -6 -6z"/>
<path d="M10455 10070 c28 -12 65 -12 65 0 0 6 -19 10 -42 9 -33 0 -38 -2 -23
-9z"/>
<path d="M10796 10044 c-9 -25 -1 -27 38 -13 45 16 46 29 2 29 -22 0 -36 -6
-40 -16z"/>
<path d="M10385 10020 c-19 -8 -18 -9 4 -9 30 -1 102 -21 118 -33 6 -5 35 -8
65 -7 29 2 63 -1 76 -5 29 -10 29 8 0 28 -29 21 -48 20 -63 -1 -9 -13 -16 -14
-26 -7 -8 6 -41 17 -74 24 -33 7 -64 14 -70 16 -5 1 -19 -1 -30 -6z"/>
<path d="M10685 10020 c-3 -5 -1 -10 4 -10 6 0 11 5 11 10 0 6 -2 10 -4 10 -3
0 -8 -4 -11 -10z"/>
<path d="M10915 9993 c-16 -3 -39 -14 -49 -25 -19 -20 -19 -20 5 -12 13 5 41
9 62 9 26 0 42 6 48 18 11 18 2 20 -66 10z"/>
<path d="M10793 9973 c-24 -9 -13 -23 18 -23 27 0 30 2 19 15 -13 16 -17 17
-37 8z"/>
<path d="M3700 9946 c0 -14 -4 -28 -10 -31 -17 -11 -11 -45 8 -45 10 0 23 -5
29 -11 6 -6 16 -8 23 -4 8 5 6 11 -6 19 -13 10 -15 21 -10 48 5 28 3 37 -10
42 -23 9 -24 8 -24 -18z"/>
<path d="M7565 9920 c-3 -5 1 -10 10 -10 9 0 13 5 10 10 -3 6 -8 10 -10 10 -2
0 -7 -4 -10 -10z"/>
<path d="M10658 9918 c9 -9 8 -16 -4 -29 -19 -21 -4 -34 32 -25 21 6 23 9 11
29 -13 24 -27 37 -41 37 -6 0 -5 -5 2 -12z"/>
<path d="M11015 9900 c3 -5 11 -10 16 -10 6 0 7 5 4 10 -3 6 -11 10 -16 10 -6
0 -7 -4 -4 -10z"/>
<path d="M10550 9861 c0 -6 5 -13 10 -16 6 -3 10 1 10 9 0 9 -4 16 -10 16 -5
0 -10 -4 -10 -9z"/>
<path d="M10805 9860 c-4 -6 8 -10 30 -10 22 0 34 4 30 10 -3 6 -17 10 -30 10
-13 0 -27 -4 -30 -10z"/>
<path d="M11260 9830 c0 -5 7 -10 15 -10 8 0 15 5 15 10 0 6 -7 10 -15 10 -8
0 -15 -4 -15 -10z"/>
<path d="M11011 9821 c-26 -7 -41 -31 -19 -31 7 0 24 9 38 20 26 20 22 23 -19
11z"/>
<path d="M11072 9813 c2 -10 10 -18 18 -18 8 0 16 8 18 18 2 12 -3 17 -18 17
-15 0 -20 -5 -18 -17z"/>
<path d="M11137 9813 c-14 -13 -6 -20 16 -16 13 3 41 -2 62 -11 59 -25 73 -19
21 9 -46 24 -86 32 -99 18z"/>
<path d="M10750 9790 c0 -5 7 -7 15 -4 8 4 15 8 15 10 0 2 -7 4 -15 4 -8 0
-15 -4 -15 -10z"/>
<path d="M4265 9770 c-3 -5 3 -15 13 -22 10 -7 24 -23 31 -35 16 -31 35 -30
27 2 -4 16 -2 25 6 25 21 0 -6 20 -40 29 -18 5 -34 6 -37 1z"/>
<path d="M11300 9750 c0 -5 4 -10 9 -10 6 0 13 5 16 10 3 6 -1 10 -9 10 -9 0
-16 -4 -16 -10z"/>
<path d="M10994 9712 c-25 -20 -37 -69 -18 -76 8 -3 15 9 19 35 5 29 11 39 26
39 10 0 19 5 19 10 0 15 -23 12 -46 -8z"/>
<path d="M11342 9638 c3 -7 15 -15 27 -16 16 -3 22 1 19 10 -3 7 -15 15 -27
16 -16 3 -22 -1 -19 -10z"/>
<path d="M11456 9642 c-11 -18 5 -43 24 -37 9 3 23 -1 30 -10 7 -8 16 -12 21
-9 15 9 10 24 -8 24 -9 0 -27 9 -39 21 -13 12 -24 16 -28 11z"/>
<path d="M11225 9560 c3 -5 11 -10 16 -10 6 0 7 5 4 10 -3 6 -11 10 -16 10 -6
0 -7 -4 -4 -10z"/>
<path d="M11467 9532 c-24 -5 -16 -26 11 -30 14 -2 22 2 22 12 0 18 -10 24
-33 18z"/>
<path d="M11530 9491 c0 -5 7 -11 15 -15 8 -3 15 -1 15 3 0 5 -7 11 -15 15 -8
3 -15 1 -15 -3z"/>
<path d="M11030 9480 c0 -5 7 -10 16 -10 8 0 12 5 9 10 -3 6 -10 10 -16 10 -5
0 -9 -4 -9 -10z"/>
<path d="M11295 9480 c3 -5 11 -10 16 -10 6 0 7 5 4 10 -3 6 -11 10 -16 10 -6
0 -7 -4 -4 -10z"/>
<path d="M6040 9471 c-8 -6 -18 -7 -22 -5 -4 3 -8 1 -8 -5 0 -5 5 -11 11 -13
9 -3 9 -10 0 -26 -10 -19 -15 -20 -32 -11 -12 6 -21 9 -22 7 -22 -43 -45 -53
-39 -17 3 17 0 20 -18 14 -12 -4 -27 -1 -35 5 -12 10 -16 9 -21 -4 -9 -24 -27
-19 -49 16 -33 51 -49 49 -43 -6 5 -43 4 -47 -15 -44 -15 2 -22 -4 -28 -25 -4
-16 -13 -35 -20 -44 -11 -13 -14 -12 -21 6 -11 31 -48 28 -48 -4 0 -35 -36
-70 -56 -55 -7 7 -20 10 -28 7 -8 -3 -20 1 -26 9 -21 24 -33 16 -28 -18 3 -18
2 -42 -2 -53 -7 -19 -8 -18 -18 6 -12 30 -75 86 -80 71 -2 -6 5 -26 14 -44 25
-48 34 -115 17 -129 -7 -6 -13 -17 -13 -25 0 -28 -23 -25 -56 7 l-34 33 -2
-25 c-1 -13 -2 -32 -3 -41 0 -9 -8 -25 -18 -36 -9 -10 -14 -22 -11 -25 4 -4 1
-14 -7 -23 -11 -14 -11 -18 -1 -21 6 -3 10 -9 6 -14 -3 -5 -12 -3 -20 6 -12
11 -20 12 -42 3 -43 -19 -47 -26 -27 -48 14 -16 16 -23 7 -32 -16 -16 -15 -45
0 -50 10 -4 10 -11 0 -34 -9 -19 -10 -30 -3 -32 18 -6 12 -20 -6 -18 -11 2
-20 14 -23 32 -5 27 -7 28 -53 25 -32 -2 -52 2 -63 13 -16 16 -45 22 -43 9 4
-22 -2 -70 -10 -82 -8 -12 -12 -13 -26 -1 -14 11 -19 11 -32 -3 -16 -15 -15
-18 3 -39 25 -29 31 -76 10 -84 -20 -8 -21 -24 -1 -24 8 0 19 -9 25 -19 8 -16
6 -21 -9 -26 -22 -7 -18 -35 5 -35 10 0 11 -6 4 -25 -8 -20 -6 -27 5 -31 21
-9 52 -67 48 -92 -2 -18 2 -22 22 -22 18 0 25 -5 25 -18 0 -10 3 -22 8 -26 4
-4 7 -13 7 -19 0 -15 117 -12 145 3 33 18 38 12 27 -39 -8 -42 -7 -53 7 -66
21 -21 21 -84 -1 -114 -15 -22 -15 -26 2 -57 17 -33 17 -35 0 -54 -10 -11 -13
-20 -7 -20 7 0 12 4 12 9 0 5 12 8 26 7 35 -4 84 14 114 42 17 16 32 21 48 17
15 -4 24 0 28 10 4 8 16 15 29 15 27 0 58 32 53 56 -1 9 -18 25 -36 34 -18 10
-32 22 -32 26 1 5 -3 10 -9 12 -6 2 -11 -1 -11 -7 0 -6 -9 -11 -20 -11 -11 0
-20 3 -20 8 0 16 99 101 126 108 16 4 62 38 103 76 40 37 78 68 85 68 6 0 34
17 62 38 27 22 79 54 114 73 51 27 60 35 42 37 -26 4 -27 14 -8 50 7 15 23 50
34 77 11 28 31 77 45 110 32 73 50 151 42 176 -11 34 36 43 150 29 140 -17
213 -35 233 -58 9 -10 42 -25 72 -31 68 -14 154 -60 158 -84 2 -10 -5 -25 -15
-33 -13 -11 -14 -14 -3 -13 8 1 23 -1 33 -6 11 -4 23 -3 29 3 8 8 41 9 100 5
86 -6 88 -5 88 16 0 22 -26 52 -68 80 -12 8 -20 24 -19 35 2 16 -4 21 -25 21
-63 2 -44 29 29 40 48 7 50 19 4 28 -20 4 -31 14 -35 32 -5 18 -13 25 -31 25
-16 0 -25 6 -25 15 0 14 -4 14 -35 1 -33 -14 -36 -14 -46 5 -14 26 -3 92 21
121 l18 22 37 -19 c21 -11 40 -28 43 -37 6 -23 17 -23 52 4 43 31 38 54 -15
79 -25 12 -48 25 -51 30 -3 5 -14 9 -25 9 -11 0 -22 7 -25 15 -4 8 -15 15 -25
15 -10 0 -37 17 -58 38 -33 32 -46 38 -70 34 -19 -2 -31 0 -31 7 0 6 -17 22
-38 36 -31 20 -47 24 -78 21 -21 -3 -53 -1 -71 5 -21 7 -38 7 -50 1 -11 -7
-23 -6 -35 2 -15 9 -21 8 -28 -3 -7 -12 -11 -13 -24 -1 -19 15 -93 20 -118 8
-14 -7 -18 -4 -18 12 0 22 -32 28 -60 11z m275 -191 c18 0 29 -49 14 -66 -16
-19 -32 -18 -60 5 -21 17 -22 22 -11 46 8 18 18 25 28 21 9 -3 22 -6 29 -6z
m249 -39 c96 -31 106 -44 82 -100 -10 -22 -24 -42 -30 -44 -7 -3 -34 6 -62 18
-27 13 -57 24 -67 24 -10 1 -16 5 -12 10 7 13 -32 34 -50 28 -21 -9 -35 15
-35 61 l0 43 48 -7 c26 -4 83 -19 126 -33z m-494 -1 c0 -12 -9 -31 -21 -43
l-20 -22 -19 25 c-33 42 -24 58 33 59 21 1 27 -4 27 -19z m-685 -380 c3 -5 2
-10 -4 -10 -5 0 -13 5 -16 10 -3 6 -2 10 4 10 5 0 13 -4 16 -10z m1515 -60 c0
-5 -2 -10 -4 -10 -3 0 -8 5 -11 10 -3 6 -1 10 4 10 6 0 11 -4 11 -10z m-1610
-60 c0 -13 -5 -18 -15 -14 -12 5 -13 10 -4 20 15 19 19 18 19 -6z m-40 -26 c0
-8 -5 -12 -10 -9 -6 4 -8 11 -5 16 9 14 15 11 15 -7z m510 -152 c0 -15 -28
-47 -35 -40 -11 11 5 48 21 48 8 0 14 -4 14 -8z m-670 -202 c0 -5 -5 -10 -11
-10 -5 0 -7 5 -4 10 3 6 8 10 11 10 2 0 4 -4 4 -10z m165 -50 c3 -5 1 -10 -4
-10 -6 0 -11 5 -11 10 0 6 2 10 4 10 3 0 8 -4 11 -10z m-55 -20 c0 -5 -4 -10
-10 -10 -5 0 -10 5 -10 10 0 6 5 10 10 10 6 0 10 -4 10 -10z m165 -220 c3 -5
1 -10 -4 -10 -6 0 -11 5 -11 10 0 6 2 10 4 10 3 0 8 -4 11 -10z m-25 -120 c0
-5 -2 -10 -4 -10 -3 0 -8 5 -11 10 -3 6 -1 10 4 10 6 0 11 -4 11 -10z"/>
<path d="M11245 9440 c3 -5 11 -10 16 -10 6 0 7 5 4 10 -3 6 -11 10 -16 10 -6
0 -7 -4 -4 -10z"/>
<path d="M11549 9403 c28 -23 90 -47 99 -39 10 10 -13 27 -49 36 -19 4 -43 11
-54 15 -17 6 -16 4 4 -12z"/>
<path d="M11335 9350 c3 -5 8 -10 11 -10 2 0 4 5 4 10 0 6 -5 10 -11 10 -5 0
-7 -4 -4 -10z"/>
<path d="M11370 9331 c0 -5 5 -13 10 -16 6 -3 10 -2 10 4 0 5 -4 13 -10 16 -5
3 -10 2 -10 -4z"/>
<path d="M11280 9295 c0 -10 7 -15 18 -13 21 4 19 22 -2 26 -10 2 -16 -3 -16
-13z"/>
<path d="M11648 9283 c7 -3 16 -2 19 1 4 3 -2 6 -13 5 -11 0 -14 -3 -6 -6z"/>
<path d="M11018 9143 c7 -3 16 -2 19 1 4 3 -2 6 -13 5 -11 0 -14 -3 -6 -6z"/>
<path d="M11822 8988 c5 -15 28 -23 28 -10 0 5 -7 13 -16 16 -10 4 -14 1 -12
-6z"/>
<path d="M3386 8948 c13 -43 78 -128 97 -128 10 0 3 99 -9 117 -13 20 -51 34
-42 16 2 -5 10 -20 17 -36 8 -15 12 -30 8 -33 -11 -12 -27 7 -37 46 -7 25 -17
40 -26 40 -11 0 -13 -6 -8 -22z"/>
<path d="M3266 8871 c-18 -20 -22 -51 -6 -51 6 0 10 -7 10 -15 0 -9 -9 -15
-24 -15 -32 0 -55 -36 -48 -78 4 -29 1 -33 -31 -47 -38 -16 -56 -54 -32 -68
19 -10 19 -27 2 -27 -8 0 -22 -9 -33 -21 -15 -16 -16 -23 -6 -37 23 -32 25
-43 9 -55 -18 -13 -20 -36 -13 -202 7 -147 12 -200 20 -214 5 -7 10 -46 12
-87 3 -41 9 -86 14 -100 6 -14 10 -40 10 -59 0 -19 5 -46 11 -62 l12 -28 8 34
c4 19 9 98 10 175 3 116 7 145 21 165 10 13 18 33 18 45 0 12 7 31 15 42 8 10
15 29 15 42 0 22 2 29 34 92 17 33 17 35 0 47 -10 7 -21 13 -26 13 -4 0 -8 7
-8 15 0 11 5 12 26 5 14 -6 30 -8 35 -4 12 7 11 38 -2 51 -7 7 -8 13 0 17 6 4
8 31 4 71 -5 51 -3 66 9 70 20 8 20 244 -1 269 -26 31 -47 37 -65 17z"/>
<path d="M3401 8836 c-9 -10 -8 -16 4 -26 8 -7 15 -21 15 -31 0 -10 5 -21 11
-24 6 -4 9 -24 8 -44 -4 -37 19 -111 33 -111 4 0 8 10 8 23 -1 28 -34 154 -43
163 -4 4 -7 18 -7 30 0 28 -14 38 -29 20z"/>
<path d="M5083 8836 c-30 -14 -29 -26 2 -26 18 0 25 5 25 20 0 11 -1 19 -2 19
-2 -1 -13 -6 -25 -13z"/>
<path d="M6625 8750 c-3 -5 1 -10 9 -10 9 0 16 5 16 10 0 6 -4 10 -9 10 -6 0
-13 -4 -16 -10z"/>
<path d="M6515 8725 l-40 -14 45 5 c25 4 49 10 55 15 13 13 -12 10 -60 -6z"/>
<path d="M3360 8690 c0 -5 5 -10 11 -10 5 0 7 5 4 10 -3 6 -8 10 -11 10 -2 0
-4 -4 -4 -10z"/>
<path d="M6350 8680 c-8 -5 -24 -10 -36 -10 -11 0 -29 -7 -40 -15 -16 -12 -11
-12 36 1 30 9 59 20 65 25 12 12 -6 12 -25 -1z"/>
<path d="M4935 8660 c-3 -5 -1 -10 4 -10 6 0 11 5 11 10 0 6 -2 10 -4 10 -3 0
-8 -4 -11 -10z"/>
<path d="M3380 8641 c0 -5 7 -14 15 -21 16 -14 18 -10 9 14 -6 17 -24 22 -24
7z"/>
<path d="M11945 8640 c3 -5 13 -10 21 -10 8 0 14 5 14 10 0 6 -9 10 -21 10
-11 0 -17 -4 -14 -10z"/>
<path d="M6165 8623 c-11 -3 -24 -9 -29 -14 -6 -5 -17 -9 -26 -9 -9 0 -25 -9
-35 -20 -10 -11 -13 -20 -8 -20 15 0 87 31 93 39 3 4 14 13 25 19 21 12 15 13
-20 5z"/>
<path d="M11087 8384 c-26 -20 -47 -41 -47 -46 0 -5 23 10 50 33 46 39 56 49
47 49 -2 0 -25 -16 -50 -36z"/>
<path d="M11483 8392 c-76 -23 -110 -51 -194 -161 -140 -183 -175 -265 -203
-476 -27 -207 -29 -222 -18 -241 10 -18 17 6 37 128 4 25 16 44 40 63 19 14
35 35 35 45 0 11 9 24 19 30 11 6 17 17 15 27 -15 58 101 267 193 350 59 53
94 59 245 44 166 -17 179 -20 203 -35 12 -8 40 -18 61 -22 21 -3 47 -15 57
-25 10 -11 22 -19 27 -19 18 0 130 -109 130 -126 0 -16 27 -37 39 -30 10 7
-38 97 -74 138 -11 13 -27 35 -35 50 -30 55 -110 136 -167 169 -163 98 -291
126 -410 91z"/>
<path d="M13535 8260 c-75 -19 -120 -53 -150 -113 -19 -38 -19 -97 0 -123 8
-10 15 -24 15 -31 1 -32 86 -139 139 -175 15 -10 45 -18 69 -18 39 0 48 5 93
51 27 28 49 55 49 61 0 5 8 22 19 36 28 41 45 121 37 176 -17 110 -137 171
-271 136z"/>
<path d="M12220 7845 c0 -8 4 -15 10 -15 5 0 7 7 4 15 -4 8 -8 15 -10 15 -2 0
-4 -7 -4 -15z"/>
<path d="M11056 7309 c-11 -58 -5 -243 10 -309 8 -36 17 -90 20 -120 5 -59 23
-87 49 -76 18 6 17 23 -7 113 -9 36 -8 47 6 69 10 14 19 35 22 47 2 12 14 32
28 45 19 20 27 22 44 13 11 -6 29 -11 40 -11 11 0 25 -7 32 -15 10 -12 16 -13
38 -1 23 12 31 12 54 0 16 -8 28 -12 28 -9 0 3 18 -4 40 -15 22 -11 40 -25 40
-30 0 -6 11 -15 25 -20 14 -5 28 -17 31 -25 4 -10 20 -15 49 -15 27 0 47 -6
56 -16 7 -9 32 -25 55 -36 40 -18 94 -74 94 -96 0 -5 6 -22 14 -37 l15 -28 7
38 c8 44 -11 162 -30 188 -8 10 -19 16 -25 15 -6 -2 -28 19 -48 46 -27 35 -46
51 -67 53 -53 7 -156 75 -156 103 0 5 -15 16 -32 25 -18 8 -44 23 -58 34 -19
15 -58 25 -155 37 -98 13 -139 23 -167 41 -21 13 -39 23 -42 23 -2 0 -6 -14
-10 -31z"/>
<path d="M13579 7313 c-3 -5 -6 -23 -8 -34 0 -5 -5 -7 -11 -4 -5 3 -10 -2 -11
-12 0 -10 -2 -37 -4 -60 -2 -24 1 -43 5 -43 5 0 15 -12 22 -27 11 -23 21 -29
55 -31 38 -3 43 0 58 29 10 18 14 41 11 55 -4 16 -2 24 6 24 9 0 9 3 2 8 -6 4
-14 16 -17 26 -7 17 -6 17 10 5 17 -13 17 -12 2 6 -9 11 -19 28 -22 38 -4 9
-14 18 -24 19 -39 3 -73 4 -74 1z"/>
<path d="M10956 6875 c-5 -22 -10 -105 -11 -185 -1 -166 -3 -170 -89 -268 -90
-102 -152 -265 -132 -346 16 -66 113 -107 189 -80 54 19 72 34 55 45 -14 9
-18 31 -7 39 4 3 10 23 12 45 2 22 7 47 10 55 12 33 26 104 21 111 -12 20 19
163 45 208 16 27 32 72 37 107 8 57 8 72 -1 104 -2 8 -4 18 -4 22 -1 4 -8 5
-16 2 -10 -4 -15 0 -15 15 0 17 -6 21 -30 21 -24 0 -30 4 -31 23 0 12 -6 45
-13 72 l-12 50 -8 -40z"/>
<path d="M11095 6780 c-3 -5 -1 -10 4 -10 6 0 11 5 11 10 0 6 -2 10 -4 10 -3
0 -8 -4 -11 -10z"/>
<path d="M3460 6550 c-14 -4 -46 -8 -72 -9 -26 -1 -49 -5 -52 -10 -4 -5 -24
-12 -45 -16 -22 -4 -45 -13 -52 -21 -6 -8 -31 -19 -55 -25 -28 -7 -46 -18 -49
-30 -4 -11 -24 -30 -44 -44 -29 -18 -41 -34 -50 -67 -23 -82 10 -137 81 -138
16 0 34 -10 46 -25 11 -14 29 -25 41 -25 11 0 37 -9 57 -21 32 -17 39 -18 51
-6 12 12 11 14 -9 13 -20 -1 -24 6 -32 47 -8 41 -7 50 10 65 27 26 54 34 69
22 7 -6 17 -10 21 -9 22 4 37 -3 59 -27 19 -21 27 -24 44 -15 24 13 74 15 67
2 -3 -5 -15 -7 -26 -4 -13 4 -20 0 -20 -10 0 -16 41 -34 77 -35 12 0 39 -8 59
-18 32 -15 35 -20 30 -46 -3 -15 -3 -28 1 -28 16 0 141 55 168 73 43 30 165
148 165 160 0 6 12 26 26 45 26 33 26 35 10 68 -8 19 -21 34 -27 34 -6 0 -22
9 -36 20 -14 11 -54 29 -88 39 -93 29 -377 56 -425 41z"/>
<path d="M4507 6335 c-10 -14 -24 -25 -32 -25 -7 0 -17 -9 -20 -21 -4 -11 -18
-25 -32 -30 -25 -9 -25 -10 -8 -29 24 -27 33 -25 53 10 9 16 23 30 29 30 14 0
43 51 43 75 0 22 -12 18 -33 -10z"/>
<path d="M2850 6033 c0 -10 15 -37 33 -60 17 -23 45 -60 61 -83 17 -22 33 -40
37 -40 4 0 17 -16 29 -35 12 -19 26 -35 31 -35 13 0 11 77 -2 103 -22 41 -158
167 -181 167 -4 0 -8 -8 -8 -17z"/>
<path d="M3915 5859 c-4 -6 -14 -8 -22 -5 -9 4 -21 2 -28 -4 -23 -19 -110 -60
-127 -60 -10 0 -18 7 -18 15 0 8 6 15 12 15 7 0 4 9 -8 20 -18 18 -26 20 -62
11 -25 -5 -59 -24 -82 -45 -49 -44 -61 -46 -26 -5 14 17 26 35 26 40 0 16 -38
-9 -51 -34 -15 -27 -71 -77 -81 -70 -5 2 -8 14 -8 27 0 12 3 26 8 32 4 5 -3
-1 -15 -14 -13 -13 -23 -36 -23 -51 0 -17 -10 -36 -25 -49 -13 -12 -22 -28
-19 -35 2 -7 0 -26 -6 -41 -9 -24 -7 -31 12 -50 l23 -21 -21 -43 c-11 -23 -23
-40 -27 -36 -3 4 -13 1 -22 -6 -17 -14 -20 -65 -5 -75 6 -3 10 -13 10 -21 0
-10 -14 -14 -55 -14 -30 0 -55 -4 -55 -9 0 -13 57 -31 75 -24 9 3 22 0 30 -7
16 -13 95 -4 95 11 0 5 10 7 23 5 12 -3 34 -7 50 -11 18 -4 27 -1 27 7 0 7 9
19 20 26 21 13 27 3 9 -15 -22 -22 10 -23 38 -1 15 13 37 28 47 34 31 17 43
41 30 62 -11 16 -9 18 15 14 21 -3 32 2 45 22 32 49 65 28 42 -27 -10 -25 -20
-34 -36 -33 -13 1 -25 -5 -27 -12 -3 -8 1 -10 11 -6 9 3 23 1 30 -6 12 -9 19
-7 35 9 12 12 26 21 32 21 6 0 27 14 46 30 53 47 77 33 28 -16 -28 -28 -30
-34 -13 -34 7 0 32 21 56 48 36 39 42 43 37 22 -17 -66 -17 -70 -2 -70 9 0 18
9 22 19 7 23 33 46 42 38 3 -4 0 -13 -7 -22 -14 -17 -8 -31 10 -20 7 4 10 21
7 39 -6 40 31 89 56 74 23 -12 36 -3 30 21 -3 10 0 22 6 25 6 4 11 14 11 23 0
11 -6 14 -21 10 -17 -5 -20 -2 -15 14 3 10 9 28 12 38 6 18 4 18 -43 3 -26 -9
-52 -21 -58 -27 -20 -22 -45 -37 -45 -27 0 5 19 36 43 68 24 33 46 67 50 77
12 32 -51 -20 -81 -67 -15 -22 -29 -43 -32 -46 -20 -18 -59 -78 -54 -83 4 -4
-1 -9 -10 -13 -39 -15 -26 24 28 83 32 35 28 55 -5 34 -12 -7 -24 -9 -27 -6
-4 4 1 11 11 16 9 6 17 16 17 24 0 8 15 17 35 21 38 7 52 19 35 29 -16 10 -12
37 11 61 25 26 18 44 -17 44 -17 0 -24 5 -24 20 0 21 -24 27 -35 9z m-215 -54
c-7 -9 -15 -13 -17 -11 -7 7 7 26 19 26 6 0 6 -6 -2 -15z m-235 -154 c-16 -32
-33 -47 -42 -37 -4 3 3 15 15 26 12 12 22 25 22 30 0 6 5 10 10 10 6 0 4 -13
-5 -29z m615 -48 c0 -14 -34 -43 -52 -43 -26 0 -23 29 5 40 27 11 47 12 47 3z
m-131 -73 c-25 -48 -32 -51 -17 -7 9 26 24 46 35 47 2 0 -7 -18 -18 -40z"/>
<path d="M14199 5749 c-35 -23 -85 -61 -110 -84 -25 -24 -60 -50 -77 -59 -67
-35 -208 -13 -267 41 -95 87 -134 113 -167 113 -58 0 -106 -27 -182 -103 -83
-85 -113 -110 -181 -157 -110 -74 -165 -135 -165 -183 0 -68 102 -172 239
-243 89 -46 161 -99 161 -119 0 -7 6 -18 13 -24 8 -6 19 -37 26 -68 15 -67 49
-161 66 -183 17 -21 84 -157 101 -205 8 -22 26 -72 39 -111 30 -89 65 -158 75
-147 15 16 128 280 178 413 81 218 79 207 47 287 -46 112 -43 296 6 400 25 53
69 81 142 89 l56 7 35 146 c43 176 52 231 39 231 -6 0 -39 -19 -74 -41z"/>
<path d="M4204 5765 c-16 -12 -16 -14 -3 -15 9 0 22 7 29 15 16 19 0 19 -26 0z"/>
<path d="M4487 5710 c-7 -16 -14 -69 -15 -117 -2 -49 -7 -110 -12 -138 -16
-84 -5 -155 23 -155 8 0 7 3 -2 9 -17 11 -11 47 19 114 12 27 28 47 37 47 12
0 14 6 9 28 -4 15 -8 43 -10 63 -2 20 -10 50 -19 67 -10 20 -13 46 -10 72 7
47 -3 52 -20 10z"/>
<path d="M4686 5654 c-3 -9 -6 -24 -6 -35 0 -10 -4 -19 -10 -19 -18 0 -11 -33
15 -70 15 -22 26 -54 29 -85 9 -107 18 -136 42 -146 29 -11 30 -20 4 -44 -14
-13 -17 -22 -10 -29 5 -5 10 -19 10 -29 0 -17 2 -18 18 -6 15 12 16 12 4 -2
-9 -12 -27 -16 -70 -14 -31 1 -68 -2 -82 -8 -25 -9 -99 -11 -108 -2 -3 2 1 11
8 20 10 12 10 15 -2 15 -8 0 -19 -5 -24 -10 -7 -7 -29 -7 -67 1 -48 8 -63 7
-89 -5 -39 -20 -47 -20 -71 2 -10 9 -33 17 -51 17 -27 0 -31 4 -31 28 1 37
-29 32 -33 -6 -2 -15 -8 -27 -14 -27 -6 0 -8 -3 -5 -7 4 -4 -12 -17 -36 -29
-34 -17 -55 -21 -90 -17 -27 3 -52 1 -60 -5 -8 -7 -29 -9 -50 -5 -33 5 -37 3
-37 -16 0 -17 6 -21 34 -21 21 0 36 -6 40 -15 3 -8 1 -15 -4 -15 -4 0 -21 -11
-37 -24 -16 -13 -42 -26 -58 -28 -25 -2 -29 -7 -27 -26 3 -18 -4 -26 -33 -38
-20 -8 -46 -12 -57 -8 -15 5 -26 0 -40 -17 -18 -23 -19 -23 -33 -5 -10 14 -18
16 -27 9 -7 -6 -29 -14 -48 -18 -19 -4 -55 -19 -79 -33 -34 -20 -47 -23 -61
-14 -14 9 -22 7 -36 -9 -9 -10 -23 -19 -31 -19 -16 0 -16 -5 -2 -32 14 -25 7
-30 -79 -59 -53 -18 -65 -26 -77 -55 -14 -34 -45 -47 -45 -20 0 22 -17 28 -39
14 -17 -10 -18 -13 -4 -23 13 -10 11 -14 -12 -29 -20 -13 -25 -23 -21 -41 5
-20 1 -24 -32 -33 -25 -7 -30 -10 -14 -11 25 -1 30 -28 7 -37 -8 -4 -15 -17
-15 -30 0 -13 -4 -24 -10 -24 -5 0 -20 -10 -32 -22 l-22 -22 20 -77 c13 -52
17 -86 12 -105 -16 -56 -18 -131 -4 -143 20 -17 25 4 38 157 l12 133 45 54
c25 29 61 75 80 100 32 43 119 105 148 105 7 0 34 15 60 34 27 18 64 41 83 51
52 27 336 121 405 135 33 6 78 16 100 21 51 11 220 29 280 29 33 0 45 -4 45
-15 0 -8 -4 -15 -10 -15 -5 0 -10 -6 -10 -14 0 -24 -28 -27 -32 -3 -4 30 -20
25 -38 -12 -8 -17 -21 -31 -27 -31 -16 0 -17 -32 -2 -47 6 -6 9 -17 7 -23 -3
-9 -8 -8 -20 4 -9 9 -23 16 -31 16 -21 0 -28 -26 -12 -40 8 -7 12 -16 9 -21
-8 -13 10 -11 23 2 6 6 33 10 60 9 77 -4 104 -1 118 10 10 8 19 8 34 1 16 -9
28 -7 57 8 21 11 41 18 45 15 9 -5 95 12 124 25 11 5 63 19 115 31 52 12 111
29 130 38 19 9 57 18 84 19 29 2 57 10 68 20 17 15 20 15 28 3 6 -8 10 -18 10
-22 0 -5 11 -8 25 -8 18 0 33 11 53 39 27 40 66 66 113 75 16 4 35 19 46 39
15 25 31 36 71 47 31 8 52 19 52 27 0 26 -21 53 -40 53 -11 0 -20 3 -20 8 0 4
-7 16 -16 27 -13 17 -16 18 -25 5 -8 -11 -12 -12 -16 -3 -10 26 -44 58 -49 46
-4 -8 -16 -5 -39 10 -34 23 -74 77 -56 77 6 0 11 -4 11 -10 0 -5 9 -10 20 -10
24 0 25 18 4 68 -8 20 -17 51 -18 67 -3 33 -62 194 -77 210 -13 13 -11 -3 7
-64 20 -68 11 -131 -18 -131 -18 0 -17 -4 11 -35 26 -30 31 -43 29 -81 -1 -25
-5 -47 -10 -50 -8 -5 -9 -4 -13 31 -3 33 -32 81 -59 99 -29 19 -35 46 -9 46
15 0 15 1 0 18 -10 10 -26 43 -36 73 -17 46 -21 51 -27 32 -7 -24 -19 -30 -29
-14 -6 12 -103 13 -110 2 -2 -4 17 -32 43 -62 27 -30 58 -71 71 -91 12 -21 39
-52 60 -70 39 -34 67 -75 57 -85 -3 -3 -12 0 -21 7 -11 10 -18 10 -29 1 -11
-10 -19 -6 -40 16 -20 21 -28 25 -38 15 -21 -21 -41 -15 -34 12 4 16 0 29 -13
40 -24 21 -34 56 -17 56 9 0 11 11 7 37 -7 40 -31 58 -31 23 0 -20 -4 -22 -32
-16 -39 8 -58 23 -58 47 0 10 -4 20 -9 23 -5 3 -8 40 -6 81 1 54 -1 75 -10 75
-7 0 -16 -7 -19 -16z m212 -133 c3 -8 -1 -12 -9 -9 -7 2 -15 10 -17 17 -3 8 1
12 9 9 7 -2 15 -10 17 -17z m47 -41 c3 -5 1 -10 -4 -10 -6 0 -11 5 -11 10 0 6
2 10 4 10 3 0 8 -4 11 -10z m-157 -82 c14 -14 16 -78 3 -78 -13 0 -41 47 -41
70 0 22 19 27 38 8z m152 -152 c0 -3 -4 -8 -10 -11 -5 -3 -10 -1 -10 4 0 6 5
11 10 11 6 0 10 -2 10 -4z m-150 -16 c0 -5 -5 -10 -11 -10 -5 0 -7 5 -4 10 3
6 8 10 11 10 2 0 4 -4 4 -10z m510 -80 c0 -5 -4 -10 -10 -10 -5 0 -10 5 -10
10 0 6 5 10 10 10 6 0 10 -4 10 -10z m-1280 -100 c8 -5 11 -10 5 -10 -5 0 -17
5 -25 10 -8 5 -10 10 -5 10 6 0 17 -5 25 -10z m-53 -25 c18 -19 17 -21 -20
-30 -29 -8 -38 10 -15 33 15 15 16 15 35 -3z m563 -103 c0 -9 -36 -44 -59 -57
-10 -6 -12 -2 -7 13 11 35 -7 32 -49 -9 -22 -21 -46 -39 -53 -39 -22 0 48 74
82 86 38 14 86 17 86 6z m-190 -56 c0 -2 -3 -11 -6 -20 -9 -23 -24 -20 -24 4
0 11 7 20 15 20 8 0 15 -2 15 -4z m-87 -88 c-2 -5 -11 -8 -19 -8 -17 0 -19 31
-1 49 10 10 13 7 18 -11 3 -13 4 -26 2 -30z"/>
<path d="M5121 5632 c-1 -17 49 -92 62 -92 14 0 75 -67 82 -90 8 -24 35 -35
35 -14 0 9 -30 46 -68 83 -37 36 -77 80 -89 96 -12 17 -22 24 -22 17z"/>
<path d="M4232 5558 c-17 -17 -15 -85 2 -95 8 -5 16 -27 18 -53 2 -32 7 -45
18 -45 22 0 17 67 -7 98 -13 17 -19 38 -17 66 2 46 2 45 -14 29z"/>
<path d="M3142 5468 c-6 -6 -22 -13 -34 -15 -12 -2 -30 -10 -39 -19 -13 -12
-18 -13 -22 -2 -6 18 -43 -5 -39 -23 2 -8 -2 -31 -9 -51 -9 -28 -9 -44 -2 -61
10 -22 8 -25 -23 -36 -37 -13 -43 -25 -19 -35 13 -4 13 -10 4 -28 -36 -70 -36
-73 5 -62 21 5 27 14 32 45 4 25 15 44 31 54 28 19 42 13 24 -9 -14 -17 -6
-56 12 -56 21 1 49 27 37 35 -8 5 -8 11 1 21 6 7 15 11 20 8 11 -6 49 14 49
26 0 6 -7 10 -15 10 -13 0 -13 3 -3 20 15 24 44 26 56 4 5 -9 12 -13 15 -8 3
5 -1 17 -8 27 -11 16 -18 17 -60 6 -34 -9 -49 -9 -58 0 -8 8 -8 11 1 11 7 0
17 12 22 26 7 18 17 25 33 24 34 -3 47 -1 47 9 0 13 -62 23 -74 11 -15 -15
-46 -12 -46 5 0 8 15 21 33 28 17 8 38 21 46 30 15 19 1 23 -17 5z m-77 -177
c-3 -6 -11 -11 -17 -11 -6 0 -6 6 2 15 14 17 26 13 15 -4z"/>
<path d="M4100 5460 c0 -13 5 -18 15 -14 8 4 15 12 15 20 0 8 -7 14 -15 14 -8
0 -15 -9 -15 -20z"/>
<path d="M3740 5460 c0 -5 5 -10 10 -10 6 0 10 5 10 10 0 6 -4 10 -10 10 -5 0
-10 -4 -10 -10z"/>
<path d="M3180 5450 c-13 -8 -13 -10 2 -10 9 0 20 5 23 10 8 13 -5 13 -25 0z"/>
<path d="M4105 5399 c-11 -17 1 -21 15 -4 8 9 8 15 2 15 -6 0 -14 -5 -17 -11z"/>
<path d="M4620 5398 c0 -11 61 -58 75 -58 3 0 5 11 5 25 0 20 -5 25 -24 25
-14 0 -28 5 -31 10 -9 14 -25 12 -25 -2z"/>
<path d="M5315 5400 c3 -5 8 -10 11 -10 2 0 4 5 4 10 0 6 -5 10 -11 10 -5 0
-7 -4 -4 -10z"/>
<path d="M4200 5390 c0 -5 5 -10 10 -10 6 0 10 5 10 10 0 6 -4 10 -10 10 -5 0
-10 -4 -10 -10z"/>
<path d="M4695 5310 c-3 -5 -1 -10 4 -10 6 0 11 5 11 10 0 6 -2 10 -4 10 -3 0
-8 -4 -11 -10z"/>
<path d="M3835 5290 c3 -5 10 -10 16 -10 5 0 9 5 9 10 0 6 -7 10 -16 10 -8 0
-12 -4 -9 -10z"/>
<path d="M3272 5281 c-16 -9 -12 -63 4 -68 15 -5 68 47 58 57 -15 14 -48 20
-62 11z"/>
<path d="M3130 5170 c0 -5 4 -10 9 -10 6 0 13 5 16 10 3 6 -1 10 -9 10 -9 0
-16 -4 -16 -10z"/>
<path d="M11058 5174 c-4 -3 -30 -7 -60 -9 -172 -13 -273 -34 -385 -82 -17 -7
-39 -13 -50 -13 -10 0 -31 -11 -48 -25 -26 -21 -27 -24 -10 -24 11 -1 61 17
110 39 85 38 209 66 425 95 55 7 89 25 49 25 -14 0 -28 -3 -31 -6z"/>
<path d="M3082 5148 c-7 -7 -12 -18 -12 -25 0 -10 6 -10 25 3 14 9 25 20 25
25 0 13 -24 11 -38 -3z"/>
<path d="M2914 5085 c-21 -21 -24 -31 -19 -58 4 -18 11 -37 16 -43 6 -8 4 -14
-7 -18 -23 -9 -27 -8 -20 9 11 30 -12 14 -24 -16 -14 -33 -14 -36 -26 -162 -6
-68 -11 -82 -35 -107 -16 -16 -29 -33 -29 -39 0 -6 -4 -11 -10 -11 -5 0 -14
-17 -19 -37 -6 -21 -17 -47 -24 -58 -8 -11 -17 -33 -21 -49 -4 -17 -16 -42
-27 -57 -10 -15 -19 -34 -19 -43 0 -9 -4 -16 -10 -16 -5 0 -10 -12 -10 -26 0
-16 -10 -34 -24 -45 -14 -11 -28 -29 -31 -40 -4 -11 -11 -19 -17 -17 -6 2 -28
-14 -48 -35 -24 -24 -51 -40 -71 -44 -18 -3 -38 -11 -44 -18 -5 -7 -43 -23
-82 -35 -63 -19 -73 -25 -73 -45 0 -12 -7 -28 -15 -35 -15 -12 -11 -35 5 -25
5 3 11 1 14 -4 7 -11 65 -22 141 -26 33 -1 77 -8 97 -14 27 -9 54 -9 105 0 37
6 84 12 103 14 19 2 47 8 63 14 70 27 117 53 118 64 1 6 3 32 6 57 2 25 5 60
5 78 1 17 5 32 9 32 5 0 13 9 18 19 9 16 8 18 -10 14 -20 -6 -21 -3 -14 38 4
24 13 51 21 60 17 18 18 80 4 129 -15 47 -12 341 3 380 11 29 45 135 51 163 5
21 3 27 -11 28 -15 0 -15 2 5 16 12 8 22 19 22 24 0 18 -42 8 -66 -16z"/>
<path d="M3770 5100 c0 -5 7 -10 15 -10 8 0 15 5 15 10 0 6 -7 10 -15 10 -8 0
-15 -4 -15 -10z"/>
<path d="M3630 5085 c-14 -16 -10 -18 14 -9 9 3 16 10 16 15 0 14 -16 11 -30
-6z"/>
<path d="M5516 5075 c-3 -9 -6 -26 -6 -37 0 -27 24 -17 28 11 5 29 -13 49 -22
26z"/>
<path d="M12154 5046 c1 -19 5 -38 9 -42 15 -16 6 -26 -10 -12 -22 19 -89 35
-79 19 4 -6 13 -11 19 -11 7 0 21 -9 30 -21 14 -16 25 -19 45 -14 34 8 33 6
39 55 6 43 -4 60 -38 60 -12 0 -15 -9 -15 -34z"/>
<path d="M3488 5048 c-26 -26 -22 -31 19 -23 43 8 77 24 69 32 -14 14 -72 8
-88 -9z"/>
<path d="M3835 5060 c3 -5 8 -10 11 -10 2 0 4 5 4 10 0 6 -5 10 -11 10 -5 0
-7 -4 -4 -10z"/>
<path d="M3700 5030 c-8 -5 -10 -10 -5 -10 6 0 17 5 25 10 8 5 11 10 5 10 -5
0 -17 -5 -25 -10z"/>
<path d="M3503 4968 c-13 -6 -23 -15 -23 -19 0 -9 47 8 65 23 13 12 -16 9 -42
-4z"/>
<path d="M12050 4936 c0 -17 13 -27 43 -31 12 -2 38 -7 58 -10 29 -6 37 -4 43
11 12 30 -14 46 -53 33 -26 -9 -38 -9 -52 0 -25 15 -39 14 -39 -3z"/>
<path d="M3415 4923 c-38 -9 -40 -23 -2 -23 26 0 37 4 37 15 0 16 -2 16 -35 8z"/>
<path d="M3017 4833 c-11 -10 -8 -53 3 -53 6 0 10 14 10 30 0 31 -2 35 -13 23z"/>
<path d="M12035 4740 c3 -5 11 -10 16 -10 6 0 7 5 4 10 -3 6 -11 10 -16 10 -6
0 -7 -4 -4 -10z"/>
<path d="M3053 4695 l-28 -25 35 14 c19 8 36 19 38 25 6 19 -16 12 -45 -14z"/>
<path d="M4020 4706 c0 -7 8 -21 19 -30 17 -16 18 -16 14 8 -5 26 -33 45 -33
22z"/>
<path d="M4092 4708 c-19 -19 -14 -30 8 -18 11 6 20 15 20 20 0 14 -14 12 -28
-2z"/>
<path d="M12072 4708 c5 -15 48 -24 48 -10 0 10 -23 22 -42 22 -5 0 -8 -6 -6
-12z"/>
<path d="M11990 4460 c0 -5 5 -10 10 -10 6 0 10 5 10 10 0 6 -4 10 -10 10 -5
0 -10 -4 -10 -10z"/>
<path d="M11951 4391 c-11 -7 -10 -11 7 -20 28 -15 32 -14 32 9 0 21 -16 26
-39 11z"/>
<path d="M11995 4340 c3 -5 8 -10 11 -10 2 0 4 5 4 10 0 6 -5 10 -11 10 -5 0
-7 -4 -4 -10z"/>
<path d="M3580 4173 c0 -10 -5 -25 -10 -33 -8 -12 -12 -13 -19 -1 -6 10 -13
11 -29 2 -14 -7 -23 -8 -27 -1 -12 19 -22 1 -17 -30 2 -18 -2 -40 -12 -55 -9
-14 -14 -35 -11 -47 3 -13 -1 -32 -9 -43 -14 -20 -15 -19 -40 10 -20 23 -28
27 -38 17 -18 -18 -23 -15 -24 18 -1 18 4 30 12 30 13 0 30 57 20 67 -3 4 -6
2 -6 -4 0 -17 -38 -55 -49 -49 -13 8 -20 -5 -34 -62 -10 -40 -17 -48 -44 -56
-33 -9 -45 -25 -20 -27 6 -1 2 -4 -11 -7 -25 -7 -30 -29 -6 -24 19 4 18 -10
-8 -63 -12 -24 -19 -47 -16 -50 3 -3 21 2 39 13 79 43 109 27 43 -23 -19 -15
-33 -30 -30 -33 3 -3 15 3 25 12 29 26 44 11 26 -24 -8 -16 -15 -36 -15 -45 0
-19 26 -20 34 0 3 8 1 15 -4 15 -16 0 -11 15 15 46 14 16 25 38 25 50 0 18 27
54 41 54 2 0 4 -16 3 -35 -1 -25 -10 -42 -28 -56 -14 -11 -26 -26 -26 -34 0
-28 26 -21 58 16 34 40 52 49 52 26 0 -21 -57 -77 -79 -77 -53 0 -141 -137
-126 -197 4 -16 -1 -25 -16 -34 -29 -15 -11 -31 31 -27 35 3 66 37 43 45 -10
3 -10 9 0 24 10 17 9 23 -8 35 -17 13 -18 16 -5 24 8 5 21 10 27 10 7 0 19 13
28 30 9 17 21 27 28 24 8 -3 29 13 48 36 19 23 54 62 77 87 44 44 49 69 11 45
-11 -7 -26 -9 -33 -5 -11 6 -6 14 20 33 18 14 32 30 29 37 -2 6 5 19 16 29 10
9 19 27 19 39 0 12 11 32 24 44 14 13 22 29 19 37 -4 10 3 14 22 14 24 0 27 3
23 25 -3 14 -2 44 2 68 9 48 7 55 -15 37 -20 -16 -28 -8 -28 30 0 17 -4 30 -9
30 -4 0 -8 -8 -8 -17z m-190 -268 c0 -16 -45 -21 -54 -6 -8 12 4 21 31 21 14
0 23 -6 23 -15z m-81 -37 c-18 -34 -41 -58 -50 -52 -14 8 -11 19 16 48 30 33
50 35 34 4z"/>
<path d="M6517 4132 c-10 -11 -14 -22 -10 -25 15 -9 35 9 31 28 -3 16 -5 15
-21 -3z"/>
<path d="M3680 4120 c0 -5 4 -10 9 -10 6 0 13 5 16 10 3 6 -1 10 -9 10 -9 0
-16 -4 -16 -10z"/>
<path d="M2995 4010 c-3 -5 1 -10 10 -10 9 0 13 5 10 10 -3 6 -8 10 -10 10 -2
0 -7 -4 -10 -10z"/>
<path d="M3215 3970 c-3 -5 -1 -10 4 -10 6 0 11 5 11 10 0 6 -2 10 -4 10 -3 0
-8 -4 -11 -10z"/>
<path d="M3560 3789 c0 -5 5 -7 10 -4 6 3 10 8 10 11 0 2 -4 4 -10 4 -5 0 -10
-5 -10 -11z"/>
<path d="M7475 3500 c-3 -5 1 -10 9 -10 8 0 18 5 21 10 3 6 -1 10 -9 10 -8 0
-18 -4 -21 -10z"/>
<path d="M7216 3421 c-4 -7 -5 -15 -2 -18 9 -9 19 4 14 18 -4 11 -6 11 -12 0z"/>
<path d="M7440 3395 c0 -8 5 -15 11 -15 6 0 8 -7 5 -16 -9 -24 10 -42 39 -36
32 6 32 22 0 56 -26 29 -55 35 -55 11z"/>
<path d="M6930 3349 c0 -5 5 -7 10 -4 6 3 10 8 10 11 0 2 -4 4 -10 4 -5 0 -10
-5 -10 -11z"/>
<path d="M7218 3354 c-3 -2 -3 -16 0 -29 5 -28 22 -24 22 5 0 19 -13 34 -22
24z"/>
<path d="M7655 3350 c4 -6 -14 -29 -39 -53 -24 -23 -46 -53 -48 -66 -2 -14 -9
-26 -15 -29 -21 -6 -15 53 8 82 25 31 15 50 -22 44 -20 -2 -25 -10 -29 -49 -7
-54 -18 -71 -65 -93 -31 -15 -33 -19 -23 -36 10 -15 10 -22 0 -32 -6 -6 -12
-23 -12 -37 0 -24 -4 -26 -45 -29 -49 -2 -45 -8 -49 71 -1 10 -7 21 -13 25 -7
5 -8 24 -2 61 5 30 7 57 4 59 -14 14 -55 -56 -55 -93 0 -12 -9 -34 -20 -48
-13 -16 -16 -27 -9 -29 13 -4 22 -56 13 -70 -3 -5 -19 8 -36 29 -16 21 -31 40
-33 42 -2 2 -12 -4 -21 -13 -16 -16 -18 -15 -46 13 -24 25 -29 38 -26 65 3 31
1 35 -24 40 -27 5 -38 29 -18 41 19 12 10 27 -12 22 -12 -4 -27 -2 -34 4 -23
19 -27 -12 -4 -36 23 -24 22 -54 -2 -56 -7 -1 -2 -4 12 -8 14 -4 30 -17 37
-30 6 -13 17 -28 25 -32 10 -7 9 -9 -4 -9 -9 0 -33 -16 -54 -35 -42 -40 -44
-41 -44 -20 0 8 -5 15 -10 15 -6 0 -8 10 -4 24 6 25 -10 66 -26 66 -6 0 -10
-9 -10 -21 0 -11 -5 -30 -11 -42 -10 -18 -8 -23 10 -35 24 -17 30 -72 7 -72
-8 0 -16 6 -18 13 -3 7 -26 12 -61 13 -55 1 -57 0 -55 -25 4 -39 -28 -41 -37
-2 -9 41 -23 48 -31 16 -4 -15 -1 -32 7 -42 12 -15 11 -16 -8 -11 -19 5 -23 2
-23 -17 0 -50 -30 -76 -44 -39 -4 9 -13 14 -21 10 -9 -3 -29 7 -48 24 -26 23
-30 32 -22 47 14 25 7 125 -8 120 -7 -2 -15 -23 -19 -48 -3 -24 -10 -60 -15
-79 l-9 -35 -19 40 c-15 31 -26 40 -45 40 -26 0 -27 4 -15 44 5 17 4 22 -6 19
-14 -5 -40 -43 -64 -95 -18 -39 -32 -48 -50 -33 -15 13 -20 5 -16 -27 2 -13
-50 -53 -69 -53 -7 0 -9 8 -5 20 4 13 2 20 -7 20 -22 -1 -46 -25 -54 -54 -3
-15 -14 -30 -23 -33 -9 -3 -24 -12 -33 -20 -21 -18 -60 -1 -52 22 4 9 0 15
-10 15 -20 0 -21 14 -1 30 15 13 13 24 -6 26 -5 1 -13 2 -18 3 -4 0 -7 24 -6
51 2 38 -1 50 -12 50 -8 0 -17 -9 -20 -20 -3 -11 -9 -20 -14 -20 -4 0 -16 -13
-26 -30 -11 -20 -25 -30 -41 -30 -21 0 -23 -4 -18 -25 4 -14 2 -25 -4 -25 -5
0 -10 5 -10 10 0 6 -11 10 -25 10 -18 0 -25 -5 -25 -19 0 -11 -5 -23 -11 -26
-6 -4 -8 -13 -5 -21 3 -7 1 -16 -4 -19 -6 -4 -10 -15 -10 -25 0 -11 -9 -24
-20 -30 -13 -7 -20 -7 -20 -1 0 6 -8 7 -17 4 -13 -5 -15 -2 -10 11 4 10 7 19
7 22 0 2 7 1 15 -2 22 -9 19 18 -5 44 -11 12 -20 32 -20 46 0 14 -4 27 -9 30
-12 8 -34 -21 -26 -34 3 -5 2 -10 -3 -10 -12 0 -22 51 -16 78 4 14 0 22 -16
27 -13 4 -19 12 -16 21 9 22 -1 17 -69 -38 -40 -32 -65 -59 -65 -71 0 -15 11
-8 48 32 26 28 54 51 61 51 14 0 13 -11 -6 -144 -4 -26 -1 -41 8 -47 10 -6 8
-9 -8 -9 -16 0 -23 -6 -23 -20 0 -24 -27 -27 -55 -6 -16 12 -17 18 -7 40 17
39 -6 46 -37 10 -31 -35 -73 -69 -55 -44 14 20 37 101 30 107 -3 3 -10 -5 -15
-18 -5 -13 -30 -43 -54 -67 -38 -37 -46 -40 -57 -27 -7 8 -16 15 -21 15 -5 0
-18 9 -29 20 -17 17 -20 33 -20 97 0 42 -3 73 -7 69 -17 -17 -33 -87 -33 -151
0 -79 -10 -106 -32 -87 -9 7 -18 8 -24 3 -18 -18 -124 -17 -124 0 0 8 15 10
45 7 25 -3 45 -2 45 3 0 5 -6 9 -14 9 -10 0 -14 10 -14 30 1 17 -4 36 -10 42
-9 9 -12 4 -12 -20 0 -21 -6 -35 -19 -42 -29 -15 -31 -13 -32 28 0 32 -1 34
-9 14 -5 -12 -7 -29 -3 -38 4 -12 0 -15 -18 -12 -21 3 -24 -1 -21 -24 3 -34
-14 -45 -38 -23 -14 13 -19 30 -18 64 1 25 6 52 11 59 7 9 6 17 -1 24 -9 9
-12 8 -12 -2 0 -8 -6 -27 -14 -41 -7 -14 -16 -38 -20 -53 -4 -16 -26 -45 -49
-66 -33 -30 -45 -36 -60 -29 -14 8 -16 17 -11 44 5 27 2 36 -10 41 -9 3 -16
16 -16 27 0 21 0 21 -14 2 -7 -11 -16 -36 -20 -56 -6 -36 -27 -64 -39 -53 -3
3 1 24 9 46 21 62 19 76 -9 50 -28 -26 -37 -28 -37 -6 0 12 -5 10 -20 -9 -11
-14 -20 -36 -20 -50 0 -13 -7 -41 -16 -62 -8 -21 -13 -43 -10 -50 3 -8 -1 -19
-9 -25 -21 -18 -13 85 13 146 18 44 19 54 7 70 -12 17 -14 15 -19 -21 -8 -52
-39 -109 -61 -114 -15 -2 -16 1 -10 20 15 50 17 79 5 79 -17 0 -42 28 -35 40
3 5 3 15 -1 21 -13 22 -24 -16 -18 -63 5 -35 3 -48 -6 -48 -8 0 -11 9 -8 25 4
19 1 25 -13 25 -15 0 -19 8 -19 36 0 55 -22 36 -36 -32 -7 -32 -16 -77 -19
-99 -3 -22 -8 -55 -11 -72 -3 -20 -11 -33 -19 -33 -14 0 -16 6 -19 52 -1 26
-20 26 -31 1 -12 -29 -25 -30 -25 -2 0 12 -8 23 -20 26 -23 6 -25 20 -7 42 14
17 47 94 47 111 0 6 -7 10 -16 10 -12 0 -15 6 -10 20 3 11 9 28 12 39 4 13 0
20 -15 24 -18 4 -20 10 -14 38 4 23 3 30 -5 25 -7 -4 -12 -25 -12 -47 0 -44
-17 -50 -35 -11 -14 32 -21 27 -35 -23 -7 -25 -18 -45 -24 -45 -22 0 -56 -40
-56 -65 0 -33 11 -31 38 5 23 31 42 39 42 18 -1 -21 -37 -58 -57 -58 -23 0
-60 -66 -41 -72 7 -3 9 -12 5 -22 -5 -11 -13 -15 -26 -11 -14 4 -21 -3 -33
-32 l-15 -38 5 68 c3 45 1 67 -6 67 -7 0 -14 -11 -17 -25 -3 -14 -7 -36 -10
-49 -4 -21 -10 -24 -40 -23 -33 2 -46 19 -25 32 6 3 10 1 10 -4 0 -20 21 -11
29 12 6 15 4 24 -5 30 -12 7 -12 12 0 35 35 68 44 100 34 110 -13 13 28 61 52
62 20 0 80 63 80 84 0 25 -13 19 -32 -14 -9 -16 -28 -32 -42 -36 -14 -3 -26
-10 -26 -15 0 -5 -7 -9 -15 -9 -8 0 -27 -18 -41 -40 -27 -40 -54 -53 -54 -26
0 23 -19 29 -26 9 -19 -57 -56 -123 -80 -142 -15 -12 -28 -20 -30 -19 -1 2 1
23 6 48 9 52 6 59 -19 43 -25 -16 -32 -7 -20 24 8 21 7 24 -6 19 -9 -3 -15 0
-15 9 0 23 -28 18 -41 -7 -12 -23 -28 -38 -41 -38 -10 0 11 50 30 72 17 21 8
54 -18 61 -12 3 -20 14 -20 26 0 12 -5 21 -10 21 -6 0 -4 13 5 30 8 16 15 39
15 51 0 34 -26 6 -44 -48 -12 -34 -13 -50 -5 -65 7 -12 7 -18 1 -14 -11 7 -42
-36 -42 -59 0 -18 -1 -18 -34 -5 -23 8 -25 12 -14 35 6 14 15 25 19 25 4 0 11
15 15 32 3 18 13 43 21 55 10 15 11 23 4 23 -19 0 -12 20 14 45 16 14 22 26
16 30 -6 3 -37 -19 -68 -49 -32 -31 -66 -56 -75 -56 -17 0 -21 -9 -33 -67 -7
-36 -28 -58 -45 -48 -15 9 -40 -26 -34 -47 6 -21 -23 -68 -42 -68 -20 0 -17
14 6 35 31 28 23 39 -11 15 -38 -28 -48 -19 -25 21 19 32 16 45 -7 36 -8 -3
-17 -20 -21 -38 -5 -28 -2 -36 21 -54 30 -25 26 -53 -8 -62 -22 -6 -22 -23 -1
-103 l9 -35 8 48 c4 26 15 53 24 60 10 6 20 20 24 30 3 9 15 17 26 17 17 0 19
-5 16 -37 -2 -21 -4 -41 -4 -46 -1 -4 -12 -12 -25 -17 -13 -5 -31 -23 -40 -41
-21 -41 -21 -63 -1 -55 13 5 15 0 9 -32 -4 -20 -17 -58 -30 -84 -28 -55 -30
-72 -9 -64 17 6 16 9 19 -70 2 -33 6 -65 9 -71 4 -6 2 -25 -4 -42 -6 -17 -8
-39 -3 -49 4 -9 6 -25 5 -34 -1 -11 4 -18 13 -18 9 0 16 -7 16 -16 0 -12 6
-15 23 -10 19 4 23 1 22 -21 0 -19 9 -31 34 -45 18 -10 41 -16 52 -13 14 5 20
0 25 -19 4 -19 13 -26 29 -26 13 0 25 -6 28 -14 5 -14 51 -27 97 -27 13 -1 35
-10 49 -20 13 -11 32 -17 42 -14 10 4 28 -4 46 -21 33 -31 64 -44 104 -44 17
0 32 -6 35 -15 4 -10 14 -13 30 -9 19 5 26 1 34 -21 7 -18 15 -25 26 -21 8 3
25 0 37 -8 32 -20 75 -28 82 -15 8 12 83 3 102 -13 7 -5 27 -11 45 -13 18 -2
62 -9 98 -16 36 -7 85 -13 110 -13 25 -1 50 -4 55 -7 24 -15 74 -20 93 -8 16
10 28 9 63 -5 80 -33 76 -32 59 -11 -14 17 -13 18 25 11 22 -4 47 -14 55 -21
8 -8 51 -21 95 -30 44 -9 86 -20 95 -25 45 -23 161 -31 365 -24 l214 7 30 -26
c17 -14 45 -29 63 -32 18 -4 47 -19 63 -32 17 -14 62 -48 101 -77 171 -123
340 -276 417 -379 16 -21 32 -35 38 -32 12 8 12 72 -1 80 -22 14 -10 35 21 35
24 0 30 -4 25 -16 -3 -8 -2 -24 4 -34 7 -13 6 -19 -5 -24 -20 -7 -7 -36 16
-36 10 0 28 -8 39 -18 56 -48 55 -48 88 -38 18 5 32 14 32 21 0 21 -13 25 -30
10 -13 -12 -23 -13 -44 -5 -15 5 -25 14 -22 19 10 15 96 19 139 6 45 -14 49
-29 17 -57 -27 -22 -26 -42 3 -34 15 4 27 -1 38 -15 13 -17 21 -19 49 -12 l33
9 -26 17 c-16 10 -28 13 -32 7 -13 -21 -20 -8 -21 43 -1 45 2 55 23 71 24 18
26 18 35 2 8 -14 13 -15 24 -5 12 10 17 6 27 -20 13 -35 16 -36 41 -18 15 11
16 18 8 34 -13 24 -7 33 23 33 11 0 26 5 33 12 14 14 16 88 2 88 -5 0 -10 4
-10 9 0 10 25 22 55 26 11 2 25 4 30 5 23 5 34 -1 38 -22 3 -20 4 -21 11 -5
11 24 -1 67 -19 67 -30 0 -5 29 45 52 11 5 9 7 -7 7 -24 1 -33 21 -10 21 16 1
57 35 57 49 0 16 15 14 30 -4 7 -8 24 -15 39 -14 14 0 20 3 14 6 -18 7 -16 23
1 23 8 0 16 10 18 22 2 15 9 22 21 22 9 -1 17 4 17 11 0 7 15 16 34 19 22 4
36 13 39 27 4 15 11 18 29 14 14 -3 39 3 63 15 21 11 45 20 52 20 8 0 18 11
23 25 6 17 20 27 40 31 16 4 30 10 30 15 0 5 8 9 18 9 10 0 22 4 28 10 5 5 18
11 29 13 36 7 55 19 55 34 0 8 -5 11 -11 7 -7 -4 -10 -1 -7 6 2 8 24 14 57 15
60 2 93 24 72 48 -13 16 2 26 42 28 12 0 16 3 9 6 -6 2 -10 9 -6 14 8 14 24
11 24 -6 0 -8 9 -15 20 -15 11 0 20 6 20 14 0 18 63 40 89 31 11 -3 22 -2 25
3 3 5 24 9 46 9 22 0 46 5 54 12 7 6 21 8 31 5 10 -4 21 -1 26 7 7 12 12 12
30 1 15 -10 24 -11 32 -3 6 6 20 11 31 11 11 0 28 8 39 17 13 12 33 17 63 16
39 -1 45 1 50 23 3 13 13 24 21 24 11 0 13 -7 9 -25 -8 -30 6 -31 49 -6 33 19
49 71 21 71 -8 0 -18 -4 -21 -10 -9 -15 -35 -12 -35 4 0 14 21 42 66 88 10 11
13 24 9 38 -5 17 1 30 25 55 18 18 30 41 28 50 -3 15 -6 15 -30 -5 -16 -12
-28 -31 -28 -43 0 -21 0 -21 -19 -2 -28 29 -18 85 15 85 27 0 28 3 14 31 -8
15 -7 27 7 49 9 17 22 30 28 30 20 0 38 46 31 78 -6 24 -3 30 13 35 13 3 21
13 21 25 0 26 15 35 52 34 23 -1 28 3 24 14 -3 9 -6 18 -6 20 0 2 -11 4 -25 4
-14 0 -25 5 -25 11 0 17 22 53 42 67 10 7 18 21 18 31 0 11 7 21 15 25 8 3 15
10 15 16 0 22 42 52 65 46 13 -3 27 -2 30 4 3 5 19 10 34 10 23 0 29 4 29 23
0 13 11 42 26 65 14 23 26 46 26 52 0 14 17 13 23 -2 4 -9 16 0 36 22 25 29
30 43 28 80 -1 32 -6 45 -17 45 -24 1 -42 16 -36 31 3 9 -1 14 -13 14 -21 0
-31 19 -31 57 l0 25 -34 -26 c-63 -48 -122 -21 -88 40 10 19 9 22 -13 26 -17
4 -25 1 -25 -9 0 -10 -6 -13 -16 -9 -9 3 -29 6 -45 6 -27 0 -29 2 -19 20 8 16
8 20 -4 20 -20 0 -46 -28 -46 -50 0 -15 -18 -30 -36 -30 -10 0 -2 25 14 43 17
19 16 20 -10 14 -14 -4 -33 -10 -42 -13 -24 -9 -19 15 7 37 31 26 3 25 -46 -1
-40 -22 -77 -14 -77 15 0 8 -7 15 -15 15 -11 0 -12 5 -6 23 5 13 6 30 1 37 -6
9 -12 5 -24 -17 -8 -17 -12 -33 -9 -37 9 -8 -27 -46 -44 -46 -7 0 -19 -11 -25
-25 -6 -14 -20 -25 -30 -25 -17 0 -17 2 4 39 12 22 20 43 16 46 -8 8 -78 -59
-78 -74 0 -14 -16 -22 -33 -15 -29 11 -27 56 4 95 35 44 38 67 6 36 -31 -29
-119 -101 -134 -111 -24 -14 -14 34 12 56 26 23 32 43 15 53 -15 9 -40 -14
-40 -36 0 -29 -35 -32 -74 -7 -20 13 -36 29 -36 37 0 7 18 30 40 50 22 20 40
43 40 50 0 10 -7 8 -23 -7 -25 -23 -63 -20 -83 7 -10 13 -13 12 -23 -7 -15
-28 -14 -35 5 -28 25 10 34 -3 23 -32 -6 -15 -13 -38 -16 -52 -5 -30 -9 -34
-23 -25 -6 4 -9 13 -6 21 10 26 -20 14 -51 -21 -17 -19 -40 -35 -51 -35 -11 0
-27 -3 -35 -6 -10 -3 -20 3 -27 15 -10 19 -9 20 16 10 15 -5 33 -8 40 -5 15 6
36 99 28 121 -4 8 -1 22 6 30 13 16 7 45 -9 45 -6 0 -13 -16 -17 -35 -3 -19
-10 -38 -15 -41 -5 -3 -9 -23 -9 -46 0 -39 -1 -40 -27 -33 -55 13 -68 40 -28
55 27 10 30 17 16 39 -13 20 27 80 58 88 15 4 26 2 29 -5 2 -7 7 -10 12 -7 13
8 -12 75 -27 75 -8 0 -11 -5 -8 -10z m-355 -245 c0 -8 -4 -15 -9 -15 -13 0
-22 16 -14 24 11 11 23 6 23 -9z m532 -15 c19 -17 19 -20 4 -26 -21 -8 -47 13
-39 32 7 18 10 18 35 -6z m-762 -35 c5 -14 7 -31 4 -39 -5 -12 -10 -12 -35 1
-35 17 -36 26 -6 46 28 20 26 21 37 -8z m470 -5 c0 -5 -4 -10 -10 -10 -5 0
-10 5 -10 10 0 6 5 10 10 10 6 0 10 -4 10 -10z m788 -8 c6 -18 -15 -14 -22 4
-4 10 -1 14 6 12 6 -2 14 -10 16 -16z m-638 -28 c0 -22 -2 -25 -15 -14 -12 10
-13 16 -4 26 16 20 19 18 19 -12z m104 11 c-6 -16 -44 -21 -44 -7 0 14 12 22
31 22 12 0 16 -5 13 -15z m-344 -5 c0 -12 -28 -25 -36 -17 -9 9 6 27 22 27 8
0 14 -5 14 -10z m-100 -30 c10 -18 8 -20 -25 -20 -38 0 -46 13 -17 29 24 15
30 14 42 -9z m-904 -24 c6 -26 -1 -46 -16 -46 -12 0 -19 26 -13 49 7 28 21 27
29 -3z m749 13 c10 -15 -1 -22 -24 -14 -12 3 -19 11 -16 16 8 12 32 11 40 -2z
m415 1 c0 -5 -4 -10 -10 -10 -5 0 -10 5 -10 10 0 6 5 10 10 10 6 0 10 -4 10
-10z m678 -2 c-2 -6 -10 -14 -16 -16 -7 -2 -10 2 -6 12 7 18 28 22 22 4z
m-783 -8 c3 -5 -1 -10 -10 -10 -9 0 -13 5 -10 10 3 6 8 10 10 10 2 0 7 -4 10
-10z m-605 -28 c0 -15 -2 -15 -10 -2 -13 20 -13 33 0 25 6 -3 10 -14 10 -23z
m775 18 c-3 -5 -12 -10 -18 -10 -7 0 -6 4 3 10 19 12 23 12 15 0z m-1340 -100
c-7 -30 -29 -49 -42 -36 -4 3 -2 16 4 29 6 12 14 31 17 41 11 32 29 3 21 -34z
m-2885 31 c0 -12 -51 -73 -57 -68 -6 7 38 77 48 77 5 0 9 -4 9 -9z m3780 2 c0
-14 -19 -38 -25 -32 -8 8 5 39 16 39 5 0 9 -3 9 -7z m-1600 -119 c0 -8 -4 -14
-10 -14 -5 0 -10 9 -10 21 0 11 5 17 10 14 6 -3 10 -13 10 -21z m3230 11 c0
-8 -4 -15 -10 -15 -5 0 -10 7 -10 15 0 8 5 15 10 15 6 0 10 -7 10 -15z m-2620
1 c0 -3 -4 -8 -10 -11 -5 -3 -10 -1 -10 4 0 6 5 11 10 11 6 0 10 -2 10 -4z
m-2072 -58 c-3 -35 -28 -52 -28 -20 0 28 10 52 22 52 5 0 8 -14 6 -32z m-632
-13 c-4 -14 -11 -25 -16 -25 -5 0 -7 7 -5 15 3 8 7 22 10 31 9 26 18 8 11 -21z
m-192 -80 c-17 -47 -34 -59 -34 -26 0 11 -4 23 -10 26 -22 14 -10 53 23 72
l32 19 3 -23 c2 -13 -4 -44 -14 -68z m126 58 c0 -5 -7 -17 -15 -27 -15 -20
-15 -20 -15 0 0 12 3 24 7 27 9 9 23 9 23 0z m159 -45 c-7 -13 -14 -18 -16
-11 -3 7 1 22 8 35 7 13 14 18 16 11 3 -7 -1 -22 -8 -35z m231 13 c-6 -12 -18
-21 -27 -21 -13 0 -12 5 7 25 27 29 37 27 20 -4z m509 -73 c-16 -29 -21 -16
-13 33 7 43 8 43 15 15 5 -17 4 -37 -2 -48z m4356 62 c-3 -5 -11 -10 -16 -10
-6 0 -7 5 -4 10 3 6 11 10 16 10 6 0 7 -4 4 -10z m-5325 -36 c-18 -21 -24 -10
-9 18 8 14 14 18 17 10 2 -7 -2 -19 -8 -28z m403 -39 c-3 -9 -8 -14 -10 -11
-3 3 -2 9 2 15 9 16 15 13 8 -4z m979 -17 c-7 -7 -12 -8 -12 -2 0 6 3 14 7 17
3 4 9 5 12 2 2 -3 -1 -11 -7 -17z m-1482 -67 c0 -5 -7 -12 -16 -15 -14 -5 -15
-4 -4 9 14 17 20 19 20 6z m-49 -154 c-18 -18 -25 2 -10 30 14 26 14 26 17 4
2 -13 -1 -28 -7 -34z m5224 33 c3 -5 -3 -10 -14 -10 -12 0 -21 5 -21 10 0 6 6
10 14 10 8 0 18 -4 21 -10z m-5225 -300 c0 -5 -5 -10 -11 -10 -5 0 -7 5 -4 10
3 6 8 10 11 10 2 0 4 -4 4 -10z m5098 -152 c-6 -18 -28 -21 -28 -4 0 9 7 16
16 16 9 0 14 -5 12 -12z m-4988 -22 c0 -15 -24 -28 -34 -19 -13 14 -5 33 14
33 11 0 20 -6 20 -14z m4952 -11 c0 -5 -5 -11 -11 -13 -6 -2 -11 4 -11 13 0 9
5 15 11 13 6 -2 11 -8 11 -13z m-82 -55 c0 -5 -5 -10 -11 -10 -5 0 -7 5 -4 10
3 6 8 10 11 10 2 0 4 -4 4 -10z m-1510 -870 c0 -5 -5 -10 -11 -10 -5 0 -7 5
-4 10 3 6 8 10 11 10 2 0 4 -4 4 -10z m-520 -55 c0 -8 -4 -15 -10 -15 -5 0
-10 7 -10 15 0 8 5 15 10 15 6 0 10 -7 10 -15z"/>
<path d="M7412 3293 c4 -22 43 -25 43 -3 0 8 -11 16 -23 18 -19 3 -23 0 -20
-15z"/>
<path d="M6810 3261 c0 -22 -3 -46 -6 -55 -9 -22 13 -20 25 3 11 20 3 91 -10
91 -5 0 -9 -18 -9 -39z"/>
<path d="M7213 3275 c-3 -9 2 -22 13 -30 24 -17 28 -13 20 20 -7 28 -24 33
-33 10z"/>
<path d="M8067 3253 c-2 -10 -8 -26 -12 -35 -5 -13 -2 -18 9 -18 12 0 16 10
16 35 0 38 -5 45 -13 18z"/>
<path d="M6870 3240 c0 -5 5 -10 10 -10 6 0 10 5 10 10 0 6 -4 10 -10 10 -5 0
-10 -4 -10 -10z"/>
<path d="M8292 3225 c-6 -14 -8 -25 -3 -25 8 0 23 41 17 47 -1 2 -8 -8 -14
-22z"/>
<path d="M3363 3215 c-3 -9 -3 -18 0 -21 9 -9 27 6 27 22 0 19 -19 18 -27 -1z"/>
<path d="M6655 3160 c-3 -6 1 -7 9 -4 18 7 21 14 7 14 -6 0 -13 -4 -16 -10z"/>
<path d="M6630 3114 c-12 -30 -8 -39 15 -31 17 7 21 42 5 52 -6 3 -15 -6 -20
-21z"/>
<path d="M5800 3071 c0 -5 5 -13 10 -16 6 -3 10 -2 10 4 0 5 -4 13 -10 16 -5
3 -10 2 -10 -4z"/>
<path d="M6000 3056 c0 -9 7 -16 16 -16 9 0 14 5 12 12 -6 18 -28 21 -28 4z"/>
<path d="M6796 3054 c-8 -21 -1 -28 19 -20 9 3 15 11 13 18 -7 19 -25 20 -32
2z"/>
<path d="M6728 3053 c-29 -7 -21 -25 10 -21 15 2 26 7 25 13 -2 12 -12 14 -35
8z"/>
<path d="M5255 3040 c-8 -13 4 -32 16 -25 12 8 12 35 0 35 -6 0 -13 -4 -16
-10z"/>
<path d="M5381 3038 c0 -7 4 -22 8 -33 7 -17 9 -15 13 13 3 22 1 32 -9 32 -7
0 -13 -6 -12 -12z"/>
<path d="M3451 3005 c-48 -56 -39 -57 26 -6 35 28 41 41 19 41 -8 0 -28 -16
-45 -35z"/>
<path d="M3825 3010 c3 -5 8 -10 11 -10 2 0 4 5 4 10 0 6 -5 10 -11 10 -5 0
-7 -4 -4 -10z"/>
<path d="M5323 2968 c-8 -29 -8 -48 -1 -61 14 -27 19 -16 23 47 4 66 -6 73
-22 14z"/>
<path d="M6290 2969 c0 -5 5 -7 10 -4 6 3 10 8 10 11 0 2 -4 4 -10 4 -5 0 -10
-5 -10 -11z"/>
<path d="M6030 2940 c0 -5 5 -10 10 -10 6 0 10 5 10 10 0 6 -4 10 -10 10 -5 0
-10 -4 -10 -10z"/>
<path d="M4085 2900 c-3 -5 -1 -10 4 -10 6 0 11 5 11 10 0 6 -2 10 -4 10 -3 0
-8 -4 -11 -10z"/>
<path d="M5117 2850 c-25 -60 -30 -83 -17 -78 14 4 43 84 37 101 -3 7 -11 -4
-20 -23z"/>
<path d="M3631 2827 c-16 -20 -6 -56 10 -40 6 6 9 21 7 33 -3 21 -4 22 -17 7z"/>
<path d="M5050 2804 c0 -8 5 -12 10 -9 6 4 8 11 5 16 -9 14 -15 11 -15 -7z"/>
<path d="M4467 2770 c-3 -11 -1 -20 4 -20 5 0 9 2 9 4 0 2 3 11 6 20 3 9 2 16
-4 16 -5 0 -12 -9 -15 -20z"/>
<path d="M4230 2615 c-8 -9 -8 -15 -2 -15 12 0 26 19 19 26 -2 2 -10 -2 -17
-11z"/>
<path d="M8610 2540 c0 -5 -9 -18 -21 -29 -25 -23 -51 -92 -39 -104 10 -11 50
10 50 26 0 7 9 30 20 52 24 47 25 65 5 65 -8 0 -15 -4 -15 -10z"/>
<path d="M8417 2124 c-8 -8 1 -24 14 -24 5 0 9 7 9 15 0 15 -12 20 -23 9z"/>
<path d="M9175 1790 c-3 -5 1 -10 9 -10 9 0 16 5 16 10 0 6 -4 10 -9 10 -6 0
-13 -4 -16 -10z"/>
<path d="M9670 860 c-8 -5 -11 -12 -8 -16 10 -9 38 3 38 16 0 12 -10 13 -30 0z"/>
<path d="M6450 733 c1 -20 16 -31 30 -22 13 8 13 10 0 19 -18 12 -30 13 -30 3z"/>
<path d="M6526 608 c-26 -36 -21 -60 11 -56 14 2 29 9 31 17 3 10 0 12 -12 8
-11 -5 -16 -1 -16 13 0 11 5 20 10 20 6 0 10 5 10 10 0 17 -18 11 -34 -12z"/>
<path d="M6425 610 c3 -5 8 -10 11 -10 2 0 4 5 4 10 0 6 -5 10 -11 10 -5 0 -7
-4 -4 -10z"/>
<path d="M6420 570 c0 -5 5 -10 10 -10 6 0 10 5 10 10 0 6 -4 10 -10 10 -5 0
-10 -4 -10 -10z"/>
<path d="M6535 440 c-3 -5 -1 -10 4 -10 6 0 11 5 11 10 0 6 -2 10 -4 10 -3 0
-8 -4 -11 -10z"/>
<path d="M6576 315 c4 -8 8 -15 10 -15 2 0 4 7 4 15 0 8 -4 15 -10 15 -5 0 -7
-7 -4 -15z"/>
<path d="M6560 180 l-24 -18 29 -25 c23 -19 27 -28 18 -38 -16 -20 -5 -69 16
-69 9 0 78 -5 153 -10 128 -10 139 -10 158 7 23 23 17 63 -11 63 -10 0 -20 4
-23 8 -3 5 -30 15 -61 22 -31 7 -58 17 -61 21 -2 5 -11 6 -18 3 -8 -3 -16 4
-19 15 -6 23 -28 27 -58 10 -16 -8 -25 -7 -37 4 -30 25 -37 26 -62 7z"/>
<path d="M6540 50 c0 -5 5 -10 11 -10 5 0 7 5 4 10 -3 6 -8 10 -11 10 -2 0 -4
-4 -4 -10z"/>
</g>
</svg>
